<?xml version="1.0" encoding="UTF-8"?>
<svg width="332px" height="437px" viewBox="0 0 332 437" version="1.1" xmlns="http://www.w3.org/2000/svg" xmlns:xlink="http://www.w3.org/1999/xlink">
    <!-- Generator: Sketch 52.5 (67469) - http://www.bohemiancoding.com/sketch -->
    <title>切图</title>
    <desc>Created with Sketch.</desc>
    <defs>
        <linearGradient x1="0%" y1="100%" x2="98.836263%" y2="2.49913194%" id="linearGradient-1">
            <stop stop-color="#02B9B7" offset="0%"></stop>
            <stop stop-color="#03DA91" offset="100%"></stop>
        </linearGradient>
        <path d="M106,124 C109.865626,124 113.446645,122.781451 116.379891,120.707518 C120.989995,117.447975 124,112.0755 124,106 C124,103.003951 123.268017,100.178866 121.97313,97.6938245 C118.971481,91.9333027 112.945077,88 106,88 C96.0588745,88 88,96.0588745 88,106 C88,115.941125 96.0588745,124 106,124 Z" id="path-2"></path>
        <filter x="-34.7%" y="-31.9%" width="169.4%" height="169.4%" filterUnits="objectBoundingBox" id="filter-3">
            <feOffset dx="0" dy="1" in="SourceAlpha" result="shadowOffsetOuter1"></feOffset>
            <feGaussianBlur stdDeviation="4" in="shadowOffsetOuter1" result="shadowBlurOuter1"></feGaussianBlur>
            <feColorMatrix values="0 0 0 0 0.211764706   0 0 0 0 0.588235294   0 0 0 0 0.532672634  0 0 0 0.198341259 0" type="matrix" in="shadowBlurOuter1"></feColorMatrix>
        </filter>
        <linearGradient x1="50%" y1="37.4064128%" x2="50%" y2="1.02736633%" id="linearGradient-4">
            <stop stop-color="#EEEEEE" stop-opacity="0" offset="0%"></stop>
            <stop stop-color="#F0F0F0" offset="100%"></stop>
        </linearGradient>
        <linearGradient x1="50%" y1="100%" x2="50%" y2="1.02736633%" id="linearGradient-5">
            <stop stop-color="#EEEEEE" stop-opacity="0" offset="0%"></stop>
            <stop stop-color="#F0F0F0" offset="100%"></stop>
        </linearGradient>
        <linearGradient x1="50%" y1="114.341375%" x2="50%" y2="1.02736633%" id="linearGradient-6">
            <stop stop-color="#EEEEEE" stop-opacity="0" offset="0%"></stop>
            <stop stop-color="#F0F0F0" offset="100%"></stop>
        </linearGradient>
        <linearGradient x1="50%" y1="105.743408%" x2="50%" y2="1.02736633%" id="linearGradient-7">
            <stop stop-color="#EEEEEE" stop-opacity="0.239130435" offset="0%"></stop>
            <stop stop-color="#F0F0F0" offset="100%"></stop>
        </linearGradient>
    </defs>
    <g id="Page-1" stroke="none" stroke-width="1" fill="none" fill-rule="evenodd">
        <text id="SealClass" font-family="Helvetica" font-size="24" font-weight="normal" letter-spacing="0.6" fill="#21C194">
            <tspan x="56" y="29">SealClass</tspan>
        </text>
        <g id="分组">
            <path d="M15.0570607,11.4238891 C16.0001007,10.8405469 17.1791086,10.9016077 18.0818513,11.3497712 C18.7091599,11.6612199 19.5067974,12.3421059 20.4959508,12.4519386 C21.5337104,12.5675318 25.1500821,12.5302809 27.057765,14.259954 C28.6696573,15.7211899 29.8191691,17.5514791 29.5183933,21.1763425 C29.2176175,24.800822 28.397962,27.5193736 29.0269323,30.9207313 C29.6102047,34.0740054 31.5540305,36.6024619 30.8473736,37.2230551 C29.8145993,38.1301351 26.784408,38.5594811 24.9257466,39.288755 C22.961149,40.0598881 23.2980677,42.4562382 18.9031686,43.8644778 C18.1175788,44.1160178 17.2426703,44.0875995 17.687187,43.1659264 C18.7980633,40.8609756 17.788138,40.1501353 15.2988445,39.288755 C14.1850602,38.9035724 9.16160614,37.5729069 9.01163369,37.0467852 C8.88243305,36.5947813 9.84666037,32.7433399 11.0443628,29.6157958 C12.790441,25.0546661 14.9648338,23.263164 15.0175942,20.3180345 C15.054568,18.2580951 14.2079092,15.1505207 14.111528,14.4078058 C13.9736032,13.3451935 13.9665407,12.0982466 15.0570607,11.4238891" id="Fill-1" fill="url(#linearGradient-1)"></path>
            <path d="M20,0 C8.95418815,0 0,9.11805391 0,20.3660092 C0,27.2359891 3.34032502,33.3110986 8.45784408,37 C8.52018113,36.5005611 8.66092957,35.7408231 8.94125027,34.5463217 C9.35291004,32.7952912 9.88493129,30.9396621 10.4008782,29.4553184 C11.1191265,27.3888949 11.9255876,25.8187164 12.5736577,24.5571441 C13.4346147,22.88077 14.0572011,21.6695009 14.0811166,20.1811649 C14.10464,18.7443298 13.691412,16.6363862 13.4444161,15.37681 C13.340129,14.8434364 13.264462,14.4581778 13.2346657,14.2042664 C13.1358673,13.3670774 12.8743654,11.1433566 14.6566561,9.92929282 C15.2800267,9.50451024 16.0147413,9.280142 16.7819967,9.280142 C17.4649599,9.280142 18.1483151,9.45660243 18.7587478,9.79036017 C18.9732029,9.90733507 19.1833454,10.0494616 19.386823,10.1871965 C19.7965225,10.4638641 20.220336,10.7505125 20.6084724,10.7980211 C20.7225609,10.8119942 20.9083959,10.8255681 21.1232431,10.8411381 C22.5926725,10.947733 25.6503244,11.1693066 27.5055378,13.0221412 C28.5139082,14.0298021 29.1882461,15.0446492 29.6269578,16.2151967 C30.1507459,17.6133063 30.3338365,19.2397764 30.1872072,21.1880274 C30.1017388,22.3242409 29.9743203,23.3622435 29.8516065,24.3655129 C29.5665811,26.6906386 29.3207614,28.698375 29.7100739,31.0155161 C29.9476604,32.4303934 30.4628232,33.7574397 30.8764433,34.8237877 C31.1355929,35.490904 31.3594574,36.0673946 31.4829553,36.5712251 C31.5178484,36.7149485 31.54294,36.8534819 31.5601905,36.9872246 C36.6675161,33.2971255 40,27.2280045 40,20.3660092 C40,9.11805391 31.0458119,0 20,0" id="Fill-3" fill="url(#linearGradient-1)"></path>
            <path d="M23.9941897,16.9125805 C24.0664695,17.4628187 23.4559982,17.9479399 22.6306409,17.9961264 C21.805772,18.044313 21.0780902,17.6373321 21.0058104,17.0874195 C20.9335306,16.5371813 21.5440019,16.0520601 22.3688708,16.0038736 C23.194228,15.955687 23.9219099,16.3626679 23.9941897,16.9125805" id="Fill-5" fill="#FFFFFF"></path>
        </g>
        <g id="免提" transform="translate(0.000000, 56.000000)">
            <g>
                <rect id="Rectangle-9" x="0" y="0" width="20" height="20"></rect>
                <rect id="Rectangle-3" stroke="#3D4041" fill="#D8D8D8" x="5.5" y="18.5" width="9" height="1" rx="0.5"></rect>
                <rect id="Rectangle" stroke="#3D4041" stroke-width="2" x="7" y="1" width="6" height="11" rx="3"></rect>
                <path d="M17,9 C17,12.8659932 13.8659932,16 10,16 C6.13400675,16 3,12.8659932 3,9" id="Rectangle-Copy" stroke="#3D4041" stroke-width="2" stroke-linecap="round"></path>
                <rect id="Rectangle-2" stroke="#3D4041" fill="#D8D8D8" x="9.5" y="16.5" width="1" height="3"></rect>
                <rect id="Rectangle-13" fill="#3D4041" x="2" y="7" width="2" height="3" rx="1"></rect>
                <rect id="Rectangle-13-Copy" fill="#3D4041" x="16" y="7" width="2" height="3" rx="1"></rect>
            </g>
        </g>
        <g id="静音" transform="translate(64.000000, 56.000000)">
            <g>
                <rect id="Rectangle-9-Copy-2" x="0" y="0" width="20" height="20"></rect>
                <path d="M14.7862251,16.4109096 C16.7371725,14.9520272 18,12.6234882 18,10 C18,7.37676232 16.7374137,5.04841747 14.7867839,3.58950832" id="Oval-4" stroke="#3D4041" stroke-width="2" stroke-linecap="round"></path>
                <path d="M12.6265164,14.2553906 C14.0509733,13.3743151 15,11.7979861 15,10 C15,8.20113651 14.0500468,6.62414648 12.6244306,5.74332001" id="Oval-4-Copy" stroke="#3D4041" stroke-width="2" stroke-linecap="round"></path>
                <path d="M2,6 L2,14 L5.32475972,14 L10,17.8730249 L10,2.14595522 L5.41174839,6 L2,6 Z" id="Rectangle-4" stroke="#3D4041" stroke-width="2"></path>
            </g>
        </g>
        <g id="静音" opacity="0.289318266" transform="translate(267.000000, 57.000000)">
            <g>
                <rect id="Rectangle-9-Copy-2" x="0" y="0" width="20" height="20"></rect>
                <path d="M14.7862251,16.4109096 C16.7371725,14.9520272 18,12.6234882 18,10 C18,7.37676232 16.7374137,5.04841747 14.7867839,3.58950832" id="Oval-4" stroke="#3D4041" stroke-width="2" stroke-linecap="round"></path>
                <path d="M12.6265164,14.2553906 C14.0509733,13.3743151 15,11.7979861 15,10 C15,8.20113651 14.0500468,6.62414648 12.6244306,5.74332001" id="Oval-4-Copy" stroke="#3D4041" stroke-width="2" stroke-linecap="round"></path>
                <path d="M2,6 L2,14 L5.32475972,14 L10,17.8730249 L10,2.14595522 L5.41174839,6 L2,6 Z" id="Rectangle-4" stroke="#3D4041" stroke-width="2"></path>
            </g>
        </g>
        <g id="摄像头" transform="translate(30.000000, 56.000000)">
            <g>
                <rect id="Rectangle-9-Copy" x="0" y="0" width="20" height="20"></rect>
                <circle id="Oval-3" stroke="#3D4041" stroke-width="2" cx="10" cy="10" r="3"></circle>
                <circle id="Oval-2" stroke="#3D4041" stroke-width="2" cx="10" cy="10" r="7"></circle>
                <circle id="Oval" stroke="#3D4041" stroke-width="2" cx="10" cy="2" r="1"></circle>
                <path d="M8.40491783,17.1467182 L5.37227483,19 L14.6277252,19 L11.3549979,17 L8.92636784,17 C8.74236308,17 8.56192574,17.0507689 8.40491783,17.1467182 Z" id="Path-2" stroke="#3D4041" stroke-width="2"></path>
            </g>
        </g>
        <g id="摄像头" opacity="0.289318266" transform="translate(233.000000, 57.000000)">
            <g>
                <rect id="Rectangle-9-Copy" x="0" y="0" width="20" height="20"></rect>
                <circle id="Oval-3" stroke="#3D4041" stroke-width="2" cx="10" cy="10" r="3"></circle>
                <circle id="Oval-2" stroke="#3D4041" stroke-width="2" cx="10" cy="10" r="7"></circle>
                <circle id="Oval" stroke="#3D4041" stroke-width="2" cx="10" cy="2" r="1"></circle>
                <path d="M8.40491783,17.1467182 L5.37227483,19 L14.6277252,19 L11.3549979,17 L8.92636784,17 C8.74236308,17 8.56192574,17.0507689 8.40491783,17.1467182 Z" id="Path-2" stroke="#3D4041" stroke-width="2"></path>
            </g>
        </g>
        <g id="分组-9" transform="translate(0.000000, 88.000000)">
            <circle id="椭圆形" fill="#F44436" cx="18" cy="18" r="18"></circle>
            <g id="挂断" transform="translate(9.000000, 15.000000)" fill="#FFFFFF" fill-rule="nonzero">
                <path d="M1.5270286,6 C1.51224189,5.99546315 1.49769627,5.98847157 1.48260821,5.98674011 C1.09843516,5.94218251 0.79430319,5.74753615 0.567238878,5.40753512 C0.404123044,5.16329021 0.289726991,4.89158308 0.20440208,4.60668181 C0.128057682,4.3517194 0.067524611,4.09108044 0,3.83294004 L0,3.58231723 C0.0338527134,3.45340045 0.056796214,3.31955231 0.103667656,3.19653124 C0.219650869,2.89223329 0.423189053,2.65907846 0.648344755,2.44740245 C0.954887604,2.15921361 1.29823649,1.92947786 1.64479987,1.70484881 C2.21418845,1.33582946 2.79854455,1.0015269 3.42703976,0.765128325 C4.30827511,0.433609246 5.2190035,0.258118484 6.14214791,0.1487299 C6.85203027,0.0646337276 7.56446414,0.0227281029 8.27834453,0.00924904478 C8.29823426,0.00887645293 8.31802353,0.00319990649 8.33783289,0 L9.63512512,0 C9.65943478,0.0034629125 9.68364399,0.00854769541 9.70805411,0.0101695658 C10.3098288,0.0505190716 10.9124473,0.0794716501 11.5131973,0.133365966 C12.2513271,0.199599646 12.981501,0.330795812 13.7022725,0.518012259 C14.7152421,0.781127857 15.6864232,1.14817467 16.5315155,1.84323381 C16.8549345,2.10922055 17.1938232,2.35267645 17.4781057,2.67106715 C17.6742304,2.89074292 17.8454227,3.12979347 17.9384825,3.42429445 C17.963877,3.50459895 17.9797486,3.58851979 18,3.670753 L18,3.9213539 C17.9548564,4.10804433 17.9118825,4.2954142 17.8640467,4.48127178 C17.7844878,4.79026001 17.7083041,5.10089203 17.5640333,5.38436868 C17.4124696,5.68222299 17.1858071,5.87268317 16.8791236,5.94200717 C16.76306,5.96826394 16.644465,5.98106357 16.5270353,5.99997808 L16.270277,5.99997808 C16.2437574,5.99605491 16.2173181,5.99083862 16.1906779,5.98842774 C16.0538607,5.97615412 15.9163605,5.97038991 15.7802866,5.95182607 C14.9716387,5.84136354 14.1875014,5.61682216 13.4159207,5.33672075 C13.0139675,5.19081817 12.7593589,4.88750648 12.6657968,4.43932232 C12.62216,4.23040788 12.6012456,4.01303341 12.5938322,3.79855201 C12.5795477,3.38512847 12.4127151,3.08021683 12.0825859,2.88519788 C11.9647945,2.81558895 11.8385852,2.75829747 11.7106882,2.71468231 C11.2857915,2.569766 10.8455455,2.52878089 10.4039936,2.52356461 C9.598078,2.51403064 8.79202179,2.51677029 7.98604594,2.51635386 C7.5332433,2.51613469 7.08114383,2.53217806 6.63466973,2.62495343 C6.35930754,2.68215723 6.09182088,2.76550822 5.85420899,2.93589228 C5.61981159,3.10399696 5.47108065,3.33533267 5.43682613,3.64217301 C5.41888519,3.8027601 5.41988972,3.96575808 5.4057861,4.12698076 C5.35493671,4.70822405 5.09992633,5.1242119 4.5876956,5.33884672 C3.82726522,5.65752234 3.03876822,5.84535246 2.23291292,5.95559582 C2.11046052,5.97234053 1.98756613,5.98527166 1.86487265,5.99997808 L1.5270286,6 Z" id="Shape"></path>
            </g>
        </g>
        <g id="笑脸" transform="translate(0.000000, 136.000000)">
            <g>
                <rect id="Rectangle-path" fill="#FAAD14" fill-rule="nonzero" opacity="0" x="0" y="0" width="21" height="20"></rect>
                <path d="M13.8295525,9.0912721 C13.0511625,9.09693392 12.4152047,8.50079807 12.4087943,7.75947771 L12.4218459,7.70753773 C12.4218459,6.95974918 13.0583584,6.35354678 13.8435364,6.35354678 C14.6287143,6.35354678 15.2652269,6.95974918 15.2652269,7.70753773 L15.2521753,7.75947771 C15.2490982,8.11579399 15.0974529,8.45633733 14.8306293,8.70612538 C14.5638057,8.95591342 14.2036822,9.0944646 13.8295525,9.0912721 Z M7.14714108,9.0912721 C6.36875101,9.09693392 5.7327933,8.50079807 5.72638284,7.75947771 L5.73943444,7.70753773 C5.73943444,6.95974918 6.37594696,6.35354678 7.16112493,6.35354678 C7.9463029,6.35354678 8.58281541,6.95974918 8.58281541,7.70753773 L8.56976383,7.75947771 C8.56668674,8.11579399 8.41504144,8.45633733 8.14821785,8.70612538 C7.88139426,8.95591342 7.52127081,9.0944646 7.14714108,9.0912721 Z" id="Shape" fill="#999999" fill-rule="nonzero"></path>
                <path d="M10.497987,18.4999999 C12.8769521,18.5002963 15.1572429,17.6010825 16.836244,16.0024596 C18.5104466,14.4084056 19.4496855,12.2496726 19.45,10.0003761 C19.4502184,5.3117568 15.4489782,1.50048805 10.5009294,1.5 C5.55287675,1.49951194 1.55080143,5.30999729 1.55000012,9.9986206 C1.54919881,14.6872308 5.54995016,18.4989431 10.497987,18.4999999 Z" id="Path" stroke="#979797"></path>
                <path d="M6.3,12 C7.48650513,13.6191406 8.93933411,14.4287109 10.6584869,14.4287109 C12.3776398,14.4287109 13.8304687,13.6633708 15.0169739,12.1326904" id="Path" stroke="#979797" stroke-linecap="round"></path>
            </g>
        </g>
        <g id="图片" transform="translate(30.000000, 136.000000)">
            <g id="符号-图片" fill-rule="evenodd">
                <rect id="Rectangle-path" fill="#666666" fill-rule="nonzero" opacity="0" x="0" y="0" width="21" height="20"></rect>
                <path d="M18.6,2.5 L2.4,2.5 C1.93226156,2.5 1.55,2.87754229 1.55,3.33333333 L1.55,16.6666667 C1.55,17.1224577 1.93226156,17.5 2.4,17.5 L18.6,17.5 C19.0677384,17.5 19.45,17.1224577 19.45,16.6666667 L19.45,3.33333333 C19.45,2.87754229 19.0677384,2.5 18.6,2.5 Z" id="Shape" stroke="#999999" fill-rule="nonzero"></path>
                <ellipse id="Combined-Shape" stroke="#979797" cx="6.825" cy="7.5" rx="1.575" ry="1.5"></ellipse>
            </g>
            <path d="M4.37893066,14.2171631 L6.50627957,11.9271829 C6.88217139,11.522555 7.51490769,11.4992597 7.91953564,11.8751516 C7.94371797,11.8976165 7.96677322,11.9212649 7.98861673,11.94601 L9.25469342,13.3802659 C9.62018733,13.7943101 10.2521279,13.833668 10.6661721,13.4681741 C10.6936217,13.4439432 10.7197197,13.4182231 10.7443483,13.3911299 L13.5513169,10.3032672 C13.9228108,9.89459778 14.5552582,9.86446108 14.9639276,10.235955 C15.041011,10.3060264 15.1066722,10.3877119 15.1585355,10.4780559 L16.9681641,13.6303711" id="Path-26" stroke="#979797" stroke-linecap="round"></path>
        </g>
        <g id="文件夹" transform="translate(60.000000, 136.000000)">
            <g stroke-width="1">
                <rect id="Rectangle-path" fill="#666666" fill-rule="nonzero" opacity="0" x="0" y="0" width="21" height="20"></rect>
                <path d="M18.8087486,4.78571429 L10.3023385,4.78571429 L8.00742109,2.63515775 C7.91475646,2.54832215 7.79252184,2.5 7.6655291,2.5 C7.22769602,2.5 7.22769602,2.5 6.78986294,2.5 C6.35202986,2.5 6.35202986,2.5 5.91419678,2.5 L2.1,2.5 C1.85618566,2.5 1.55,2.82851858 1.55,3.14285714 L1.55,16.8571429 C1.55,17.1714814 1.85618566,17.5 2.1,17.5 L18.9,17.5 C19.1438143,17.5 19.45,17.1714814 19.45,16.8571429 L19.45,5.42857143 C19.45,5.27509721 19.1332937,4.92534085 18.8087486,4.78571429 Z" id="Shape" stroke="#999999" fill-rule="nonzero"></path>
            </g>
            <rect id="Rectangle" fill="#999999" x="3.15" y="7" width="16.8" height="1" rx="0.5"></rect>
        </g>
        <g id="转让" transform="translate(0.000000, 168.000000)">
            <rect id="矩形" fill="#000000" opacity="0" x="0" y="0" width="20" height="20"></rect>
            <path d="M10,1.25 C5.18375,1.25 1.25,5.18375 1.25,10 C1.25,14.81625 5.18375,18.75 10,18.75 C14.8175,18.75 18.75,14.81625 18.75,10 C18.75,5.18375 14.83625,1.25 10,1.25 Z M10,17.89125 C5.6575,17.89125 2.11,14.365 2.11,10 C2.11,5.635 5.6575,2.11 10,2.11 C14.34375,2.11 17.89125,5.6575 17.89125,10 C17.8884919,14.3570741 14.3570741,17.8884919 10,17.89125 Z M14.3321432,11.9663705 L6.35449219,11.9663705 L8.32495117,14.0310059 C8.47672985,14.1428431 8.66936251,14.5202773 8.48291016,14.80146 C8.32495117,15.0396729 7.68555987,14.7089228 7.55859375,14.5822754 C6.01617709,12.9800732 5.23805606,12.169711 5.22423066,12.1511889 C5.08159902,12.0250683 5.00057387,11.8500341 5,11.6667957 C5,11.2983669 5.30977531,11 5.69343008,11 L14.4902712,11 C14.8726298,11 15,11.1160305 15,11.4844593 C15,11.7284678 14.7773811,11.8891049 14.3321432,11.9663705 Z M5.67988655,9 C5.29839064,8.99324747 5.04315326,8.88429071 5.04882813,8.51477051 C5.04882813,8.13993332 5.30433698,7.99060059 5.67988655,7.99060059 L13.4908447,7.99060059 L11.4464111,6.01062012 C11.1788251,5.74289474 11.0290448,5.4675668 11.2966309,5.19984142 C11.4222795,5.07221793 11.4881486,5 11.6702204,5 C11.8522921,5 12.026421,5.07221793 12.1520696,5.19984142 L14.7249024,7.76205087 C14.7376329,7.77438104 14.741452,7.79041026 14.7529095,7.80520647 C14.9084032,7.93373749 14.9985361,8.12138437 14.999881,8.31937458 C15.0032857,8.49704654 14.9334907,8.66871591 14.8059243,8.79643573 C14.6783578,8.92415554 14.5035252,8.99740768 14.3200727,9 L5.67988655,9 Z" id="形状" fill="#979797" fill-rule="nonzero"></path>
        </g>
        <g id="主讲_hover" transform="translate(26.000000, 200.000000)">
            <rect id="Rectangle-9-Copy" x="0" y="0" width="20" height="20"></rect>
            <g id="Group" stroke-width="1" fill-rule="evenodd">
                <rect id="Rectangle-30" x="0" y="0" width="20" height="20"></rect>
                <g id="主持会议" transform="translate(0.000000, 3.000000)">
                    <rect id="Rectangle-9-Copy" fill="#21C194" transform="translate(16.998481, 7.161660) rotate(-45.000000) translate(-16.998481, -7.161660) " x="16.4984814" y="4.8353804" width="1" height="4.65255892"></rect>
                    <circle id="Oval-2" stroke="#21C194" cx="9" cy="4" r="3.5"></circle>
                    <circle id="Oval-4" fill="#21C194" cx="15.5" cy="5.5" r="1.5"></circle>
                    <polygon id="Combined-Shape" fill="#21C194" points="18 8 18.5448456 8 19 8.52235631 19 16 18 16"></polygon>
                    <path d="M2.5,15.5 L15.5,15.5 L15.5,13.5 C15.5,11.290861 13.709139,9.5 11.5,9.5 L6.5,9.5 C4.290861,9.5 2.5,11.290861 2.5,13.5 L2.5,15.5 Z" id="Rectangle-56" stroke="#21C194"></path>
                    <rect id="Rectangle-57" fill="#21C194" x="0" y="15" width="20" height="1"></rect>
                </g>
            </g>
        </g>
        <g id="免提_灰色" transform="translate(52.000000, 168.000000)">
            <g id="免提">
                <rect id="Rectangle-9" x="0" y="0" width="20" height="20"></rect>
                <rect id="Rectangle-3" stroke="#979797" x="5.5" y="18.5" width="9" height="1" rx="0.5"></rect>
                <rect id="Rectangle" stroke="#979797" x="6.5" y="2.5" width="7" height="11" rx="3.5"></rect>
                <path d="M15.9632568,9 C15.9632568,12.8659932 13.8659932,16 10,16 C6.13400675,16 4.05749512,12.8659932 4.05749512,9" id="Rectangle-Copy" stroke="#979797" stroke-linecap="round"></path>
                <rect id="Rectangle-2" stroke="#979797" stroke-width="1.4" fill="#D8D8D8" x="10.2" y="16.7" width="1" height="1.6"></rect>
            </g>
        </g>
        <g id="摄像头_灰色" transform="translate(78.000000, 168.000000)">
            <g id="Group-3-Copy">
                <g id="摄像头-线性" fill-rule="nonzero">
                    <rect id="Rectangle-path" fill="#FFFFFF" opacity="0" x="0" y="0" width="20" height="20"></rect>
                    <path d="M9.98000355,6.98638223 C8.51048948,6.98638223 7.3193065,8.17756521 7.3193065,9.64707928 C7.3193065,11.1165981 8.51049427,12.3077963 9.98000355,12.3077963 C11.4495302,12.3077963 12.6407206,11.1166007 12.6407206,9.64707928 C12.6407206,8.17756261 11.449535,6.98638223 9.98000355,6.98638223 Z M9.98000355,12.2542306 C8.54031501,12.2542306 7.37287219,11.0866578 7.37287219,9.64709926 C7.37287219,8.20705712 8.54009907,7.03996789 9.98000355,7.03996789 C11.4199242,7.03996789 12.5871549,8.2070533 12.5871549,9.64709926 C12.5871549,11.0866616 11.4197083,12.2542306 9.98000355,12.2542306 Z M6.57468964,18.226831 C6.59705042,18.2285699 6.62000784,18.2302604 6.64355334,18.231898 C7.24253091,18.2735574 7.93507256,18.2814462 9.95262215,18.2814462 C11.9701618,18.2814462 12.6627037,18.2735574 13.261681,18.231898 C13.2852285,18.2302603 13.3081879,18.2285696 13.3305506,18.2268306 C12.9822126,17.8303905 12.4886762,17.2587173 11.9258264,16.6021724 L11.449869,16.0469845 L12.1399257,15.8049294 C14.7327562,14.8954275 16.5038014,12.4396414 16.5038014,9.64707928 C16.5038014,6.52779834 14.2983305,3.86221262 11.2788394,3.25255685 L10.8360558,3.16315584 L10.8801878,2.71359807 C10.8832563,2.68234031 10.8847911,2.65234846 10.8847911,2.62330139 C10.8847911,2.12367575 10.4796612,1.71855381 9.98002355,1.71855381 C9.48040389,1.71855381 9.07527598,2.12367774 9.07527598,2.62330139 C9.07527598,2.65235358 9.07681135,2.68235968 9.07987721,2.71357696 L9.12403038,3.16315418 L8.68122539,3.25255732 C5.66175448,3.862194 3.45626566,6.52780023 3.45626566,9.64707928 C3.45626566,12.4245821 5.20836015,14.8700197 7.78114352,15.7910075 L8.46487537,16.0357653 L7.99225601,16.5871513 C7.42550332,17.2483589 6.9262991,17.8266701 6.57468964,18.226831 Z M9.83120033,2.6216345 C9.83123132,2.6181691 9.8312458,2.61660129 9.83125671,2.61580468 L9.83111255,2.62163268 L9.83120033,2.6216345 Z M9.83125671,2.61580468 C9.8312656,2.61515562 9.83127211,2.61501855 9.83128324,2.61478419 L9.83127106,2.61522458 L9.83125671,2.61580468 Z M10.1287812,2.61818595 L10.1288113,2.61818512 L10.1287526,2.61611524 L10.1287265,2.61520061 C10.1287548,2.61617765 10.1287658,2.61655815 10.1287812,2.61818595 Z M9.12882166,2.62330141 C9.12882166,2.15307563 9.51004744,1.77211951 9.98000355,1.77211951 C10.4499597,1.77211951 10.8311854,2.15307563 10.8311854,2.62330141 C10.8310713,2.63648425 10.8310713,2.63648425 10.8309064,2.6422358 C10.8308952,2.64263971 10.8308952,2.64263971 10.8308866,2.64294964 C10.8308643,2.64379347 10.8308643,2.64379347 10.8308986,2.64231837 L10.8202574,3.15662986 L10.3064563,3.1313725 C10.1972843,3.12600583 10.0884705,3.12330141 9.98000355,3.12330141 C9.87153658,3.12330141 9.76272284,3.12600583 9.65355083,3.1313725 L9.14328237,3.1564562 L9.12919175,2.64576594 C9.12918573,2.64555031 9.12918573,2.64555031 9.12916835,2.64494633 C9.12913426,2.64376907 9.12913426,2.64376907 9.12908082,2.6418187 C9.12890646,2.6350318 9.12890646,2.6350318 9.12882166,2.62330141 Z M9.23374958,18.2178662 C8.6789125,18.2042679 8.28521433,18.1757047 8.02454701,18.1349465 C7.55620556,18.0617162 7.30802116,17.9438106 7.3336384,17.5155697 L7.33553249,17.4963598 L7.35424719,17.3379372 L8.51950458,16.0495694 L8.76546728,16.0696439 L8.90455575,16.0827193 C9.24030992,16.1384042 9.58249089,16.1678742 9.92897613,16.1705321 L9.97079568,16.1708529 C9.97315056,16.1708613 9.97588547,16.1708676 9.98000354,16.1708771 C10.3566806,16.1708771 10.7295191,16.1388611 11.0959303,16.0757437 L11.3670779,16.0290362 L12.5428782,17.3290721 L12.5665755,17.4747251 L12.570101,17.5006611 L12.5713857,17.5140537 C12.6063256,17.9382799 12.3537638,18.0609841 11.8869739,18.1352316 C11.5158724,18.194259 10.8711854,18.2278605 9.87163701,18.2278605 L9.23125104,18.2278605 L9.23374958,18.2178662 Z M9.98000355,16.1173115 C6.40665005,16.1173115 3.50979137,13.2204595 3.50979137,9.64709928 C3.50979137,6.07375241 6.40665669,3.17688709 9.98000355,3.17688709 C13.5533537,3.17688709 16.4502357,6.07375571 16.4502357,9.64709928 C16.4502357,13.2204562 13.5533604,16.1173115 9.98000355,16.1173115 Z" id="Shape" stroke="#979797"></path>
                </g>
            </g>
        </g>
        <g id="降级_灰色" transform="translate(104.000000, 168.000000)">
            <rect id="Rectangle-9-Copy" x="0" y="0" width="20" height="20"></rect>
            <g id="051操作_排序" stroke-width="1" fill-rule="evenodd" fill="#FAAD14" opacity="0">
                <rect id="Rectangle-path" fill-rule="nonzero" x="0" y="0" width="20" height="20"></rect>
            </g>
            <circle id="Oval" stroke="#979797" stroke-width="1" cx="10" cy="10" r="8"></circle>
            <rect id="Rectangle-2" fill="#979797" fill-rule="evenodd" x="8" y="5" width="4" height="1" rx="0.5"></rect>
            <path d="M8.5,7.5 L8.5,10.5 L6.07051515,10.5 L10.0202142,15.2189732 L13.9354705,10.5 L11.5,10.5 L11.5,7.5 L8.5,7.5 Z" id="Combined-Shape" stroke="#979797" stroke-width="1"></path>
        </g>
        <g id="移除参会人员" transform="translate(130.000000, 200.000000)">
            <rect id="Rectangle-9-Copy" x="0" y="0" width="20" height="20"></rect>
            <circle id="Oval" stroke="#D44040" stroke-width="1" cx="10" cy="10" r="8"></circle>
            <rect id="Rectangle-16" fill="#D44040" fill-rule="evenodd" x="6" y="9.5" width="8" height="1" rx="0.5"></rect>
        </g>
        <g id="画板缩略图" transform="translate(0.000000, 232.000000)">
            <rect id="Rectangle-9-Copy-7" x="0" y="0" width="18.5185185" height="18.5185185"></rect>
            <g id="1" transform="translate(0.925926, 1.925926)" stroke="#3D4041" stroke-width="1.6">
                <path d="M11.962963,10.1166494 L9.10519087,11.5455355 C8.61929528,11.7884833 8.04737139,11.7884833 7.56147579,11.5455355 L4.7037037,10.1166494 L1.0881916,11.9244055 C1.06382148,11.9365905 1.04406087,11.9563511 1.03187581,11.9807213 C1.00077346,12.042926 1.0259869,12.1185663 1.0881916,12.1496686 L8.27701755,15.7440816 C8.31246916,15.7618074 8.35419751,15.7618074 8.38964912,15.7440816 L15.5784751,12.1496686 C15.6028452,12.1374836 15.6226058,12.1177229 15.6347909,12.0933528 C15.6658932,12.0311481 15.6406798,11.9555078 15.5784751,11.9244055 L11.962963,10.1166494 Z" id="Combined-Shape"></path>
                <path d="M12.962963,6.91294571 L9.10519087,8.84183175 C8.61929528,9.08477955 8.04737139,9.08477955 7.56147579,8.84183175 L3.7037037,6.91294571 L1.0881916,8.22070176 C1.06382148,8.23288682 1.04406087,8.25264743 1.03187581,8.27701755 C1.00077346,8.33922225 1.0259869,8.41486256 1.0881916,8.44596491 L8.27701755,12.0403779 C8.31246916,12.0581037 8.35419751,12.0581037 8.38964912,12.0403779 L15.5784751,8.44596491 C15.6028452,8.43377985 15.6226058,8.41401924 15.6347909,8.38964912 C15.6658932,8.32744442 15.6406798,8.25180411 15.5784751,8.22070176 L12.962963,6.91294571 Z" id="Combined-Shape" fill-opacity="0" fill="#FFFFFF"></path>
                <path d="M8.38964912,0.922585084 C8.35419751,0.904859279 8.31246916,0.904859279 8.27701755,0.922585084 L1.0881916,4.51699806 C1.06382148,4.52918312 1.04406087,4.54894373 1.03187581,4.57331384 C1.00077346,4.63551854 1.0259869,4.71115885 1.0881916,4.7422612 L8.27701755,8.33667418 C8.31246916,8.35439998 8.35419751,8.35439998 8.38964912,8.33667418 L15.5784751,4.7422612 C15.6028452,4.73007614 15.6226058,4.71031553 15.6347909,4.68594542 C15.6658932,4.62374072 15.6406798,4.54810041 15.5784751,4.51699806 L8.38964912,0.922585084 Z" id="Polygon" fill-opacity="0" fill="#FFFFFF"></path>
            </g>
        </g>
        <g id="屏幕共享" transform="translate(26.000000, 232.000000)">
            <g id="共享白板-copy">
                <rect id="Rectangle-2" x="0" y="0" width="20" height="20"></rect>
                <rect id="Rectangle-3" stroke="#3D4041" stroke-width="1.6" x="0.8" y="1.8" width="18.4" height="13.4" rx="2"></rect>
                <rect id="Rectangle-5" fill="#3D4041" x="6" y="18" width="8" height="1.6" rx="0.8"></rect>
            </g>
            <path d="M10.4759586,6.09832786 C10.2251978,5.88088752 10.0206939,6.03938319 10.0206939,6.42317849 L10.0206939,7.44619599 L9.97930615,7.44619599 C8.51369446,7.44619599 6.02069385,9.26824125 6,10.8885648 C6,11.018243 6.09738284,11.0549197 6.19111382,10.8885648 C6.66463786,9.97950694 8.65489957,9.50794958 9.66889836,9.50794958 L10.0206939,9.50794958 L10.0206939,10.587292 C10.0206939,10.9095229 10.2422398,11.129583 10.4942179,10.9121426 L12.8119294,8.91064358 C13.0626902,8.69451312 13.0626902,8.33953522 12.8119294,8.12209488 L10.4759586,6.09832786 Z" id="Path" fill="#3D4041"></path>
        </g>
        <g id="共享白板" transform="translate(54.000000, 232.000000)">
            <g>
                <rect id="Rectangle-2" x="0" y="0" width="20" height="20"></rect>
                <rect id="Rectangle-3" stroke="#3D4041" stroke-width="1.6" x="1.8" y="1.8" width="16.4" height="13.4" rx="2"></rect>
                <rect id="Rectangle-5" fill="#3D4041" x="2" y="18" width="16" height="1.6" rx="0.8"></rect>
            </g>
            <rect id="Rectangle-7" fill="#3D4041" x="5" y="10" width="10" height="1.6" rx="0.8"></rect>
            <rect id="Rectangle-7-Copy" fill="#3D4041" x="5" y="6" width="2" height="1.6" rx="0.8"></rect>
            <rect id="Rectangle-7-Copy-2" fill="#3D4041" x="8" y="6" width="7" height="1.6" rx="0.8"></rect>
        </g>
        <g id="分组-2" transform="translate(42.000000, 88.000000)">
            <circle id="椭圆形" fill="#3D4041" opacity="0.699999988" cx="18" cy="18" r="18"></circle>
            <g id="全屏" transform="translate(6.000000, 6.000000)">
                <rect id="矩形" fill="#000000" opacity="0" x="0" y="0" width="24" height="24"></rect>
                <path d="M3.9453125,8.07734375 L3.9453125,3.9453125 L8.0796875,3.9453125 C8.41484375,3.9453125 8.68671875,3.6734375 8.68671875,3.33828125 L8.68671875,2.609375 C8.68671875,2.27421875 8.41484375,2.00234375 8.0796875,2.00234375 L2.46875,2.00234375 C2.2109375,2.00234375 2,2.21328125 2,2.47109375 L2,8.08203125 C2,8.4171875 2.271875,8.6890625 2.60703125,8.6890625 L3.3359375,8.6890625 C3.6734375,8.68671875 3.9453125,8.41484375 3.9453125,8.07734375 Z M15.3734375,3.9453125 L19.5078125,3.9453125 L19.5078125,8.0796875 C19.5078125,8.41484375 19.7796875,8.68671875 20.1148437,8.68671875 L20.84375,8.68671875 C21.1789062,8.68671875 21.4507812,8.41484375 21.4507812,8.0796875 L21.4507812,2.46875 C21.4507812,2.2109375 21.2398437,2 20.9820312,2 L15.3734375,2 C15.0382812,2 14.7664062,2.271875 14.7664062,2.60703125 L14.7664062,3.3359375 C14.7664062,3.67109375 15.0382812,3.9453125 15.3734375,3.9453125 Z M8.0796875,19.5078125 L3.9453125,19.5078125 L3.9453125,15.3734375 C3.9453125,15.0382813 3.6734375,14.7664062 3.33828125,14.7664062 L2.609375,14.7664062 C2.27421875,14.7664062 2.00234375,15.0382813 2.00234375,15.3734375 L2.00234375,20.984375 C2.00234375,21.2421875 2.21328125,21.453125 2.47109375,21.453125 L8.08203125,21.453125 C8.4171875,21.453125 8.6890625,21.18125 8.6890625,20.8460937 L8.6890625,20.1171875 C8.68671875,19.7796875 8.41484375,19.5078125 8.0796875,19.5078125 Z M19.5078125,15.3734375 L19.5078125,19.5078125 L15.3734375,19.5078125 C15.0382812,19.5078125 14.7664062,19.7796875 14.7664062,20.1148437 L14.7664062,20.84375 C14.7664062,21.1789063 15.0382812,21.4507812 15.3734375,21.4507812 L20.984375,21.4507812 C21.2421875,21.4507812 21.453125,21.2398437 21.453125,20.9820312 L21.453125,15.3734375 C21.453125,15.0382813 21.18125,14.7664062 20.8460937,14.7664062 L20.1171875,14.7664062 C19.7796875,14.7664062 19.5078125,15.0382813 19.5078125,15.3734375 Z" id="形状" fill="#FFFFFF" fill-rule="nonzero"></path>
            </g>
        </g>
        <g id="成功" transform="translate(0.000000, 263.000000)">
            <rect id="矩形" fill="#000000" opacity="0" x="0" y="0" width="30" height="30"></rect>
            <path d="M15,28.125 C7.75195313,28.125 1.875,22.2480469 1.875,15 C1.875,7.75195313 7.75195313,1.875 15,1.875 C22.2480469,1.875 28.125,7.75195313 28.125,15 C28.125,22.2480469 22.2480469,28.125 15,28.125 Z M15,4.06347656 C8.95898438,4.06347656 4.06347656,8.95898438 4.06347656,15 C4.06347656,21.0410156 8.95898438,25.9365234 15,25.9365234 C21.0410156,25.9365234 25.9365234,21.0410156 25.9365234,15 C25.9365234,8.95898438 21.0410156,4.06347656 15,4.06347656 Z M14.7333984,20.0947266 C14.3056641,20.5224609 13.6142578,20.5224609 13.1894531,20.0947266 C13.1103516,20.0097656 13.0458984,19.9130859 12.9990234,19.8105469 L8.93554688,15.6240234 C8.5078125,15.1962891 8.5078125,14.5048828 8.93261719,14.0771484 C9.36035156,13.6494141 10.0517578,13.6494141 10.4794922,14.0742187 L10.5,14.0947266 L14.0185547,17.7158203 L20.7363281,10.9980469 C21.1699219,10.5791016 21.8642578,10.5908203 22.2832031,11.0244141 C22.6933594,11.4492187 22.6933594,12.1201172 22.2832031,12.5419922 L14.7333984,20.0947266 Z" id="形状" fill="#21C194" fill-rule="nonzero"></path>
        </g>
        <g id="转让" transform="translate(0.000000, 200.000000)">
            <rect id="矩形" fill="#000000" opacity="0" x="0" y="0" width="20" height="20"></rect>
            <path d="M10,1.25 C5.18375,1.25 1.25,5.18375 1.25,10 C1.25,14.81625 5.18375,18.75 10,18.75 C14.8175,18.75 18.75,14.81625 18.75,10 C18.75,5.18375 14.83625,1.25 10,1.25 Z M10,17.89125 C5.6575,17.89125 2.11,14.365 2.11,10 C2.11,5.635 5.6575,2.11 10,2.11 C14.34375,2.11 17.89125,5.6575 17.89125,10 C17.8884919,14.3570741 14.3570741,17.8884919 10,17.89125 Z M14.3321432,11.9663705 L6.35449219,11.9663705 L8.32495117,14.0310059 C8.47672985,14.1428431 8.66936251,14.5202773 8.48291016,14.80146 C8.32495117,15.0396729 7.68555987,14.7089228 7.55859375,14.5822754 C6.01617709,12.9800732 5.23805606,12.169711 5.22423066,12.1511889 C5.08159902,12.0250683 5.00057387,11.8500341 5,11.6667957 C5,11.2983669 5.30977531,11 5.69343008,11 L14.4902712,11 C14.8726298,11 15,11.1160305 15,11.4844593 C15,11.7284678 14.7773811,11.8891049 14.3321432,11.9663705 Z M5.67988655,9 C5.29839064,8.99324747 5.04315326,8.88429071 5.04882813,8.51477051 C5.04882813,8.13993332 5.30433698,7.99060059 5.67988655,7.99060059 L13.4908447,7.99060059 L11.4464111,6.01062012 C11.1788251,5.74289474 11.0290448,5.4675668 11.2966309,5.19984142 C11.4222795,5.07221793 11.4881486,5 11.6702204,5 C11.8522921,5 12.026421,5.07221793 12.1520696,5.19984142 L14.7249024,7.76205087 C14.7376329,7.77438104 14.741452,7.79041026 14.7529095,7.80520647 C14.9084032,7.93373749 14.9985361,8.12138437 14.999881,8.31937458 C15.0032857,8.49704654 14.9334907,8.66871591 14.8059243,8.79643573 C14.6783578,8.92415554 14.5035252,8.99740768 14.3200727,9 L5.67988655,9 Z" id="形状" fill="#21C194" fill-rule="nonzero"></path>
        </g>
        <g id="Group" transform="translate(26.000000, 168.000000)">
            <rect id="Rectangle-30" x="0" y="0" width="20" height="20"></rect>
            <g id="主持会议" transform="translate(0.000000, 3.000000)">
                <rect id="Rectangle-9-Copy" fill="#979797" transform="translate(16.998481, 7.161660) rotate(-45.000000) translate(-16.998481, -7.161660) " x="16.4984814" y="4.8353804" width="1" height="4.65255892"></rect>
                <circle id="Oval-2" stroke="#979797" cx="9" cy="4" r="3.5"></circle>
                <circle id="Oval-4" fill="#979797" cx="15.5" cy="5.5" r="1.5"></circle>
                <polygon id="Combined-Shape" fill="#979797" points="18 8 18.5448456 8 19 8.52235631 19 16 18 16"></polygon>
                <path d="M2.5,15.5 L15.5,15.5 L15.5,13.5 C15.5,11.290861 13.709139,9.5 11.5,9.5 L6.5,9.5 C4.290861,9.5 2.5,11.290861 2.5,13.5 L2.5,15.5 Z" id="Rectangle-56" stroke="#979797"></path>
                <rect id="Rectangle-57" fill="#979797" x="0" y="15" width="20" height="1"></rect>
            </g>
        </g>
        <g id="笑脸" transform="translate(0.000000, 305.000000)">
            <g>
                <rect id="Rectangle-path" fill="#FAAD14" fill-rule="nonzero" opacity="0" x="0" y="0" width="21" height="20"></rect>
                <path d="M13.8295525,9.0912721 C13.0511625,9.09693392 12.4152047,8.50079807 12.4087943,7.75947771 L12.4218459,7.70753773 C12.4218459,6.95974918 13.0583584,6.35354678 13.8435364,6.35354678 C14.6287143,6.35354678 15.2652269,6.95974918 15.2652269,7.70753773 L15.2521753,7.75947771 C15.2490982,8.11579399 15.0974529,8.45633733 14.8306293,8.70612538 C14.5638057,8.95591342 14.2036822,9.0944646 13.8295525,9.0912721 Z M7.14714108,9.0912721 C6.36875101,9.09693392 5.7327933,8.50079807 5.72638284,7.75947771 L5.73943444,7.70753773 C5.73943444,6.95974918 6.37594696,6.35354678 7.16112493,6.35354678 C7.9463029,6.35354678 8.58281541,6.95974918 8.58281541,7.70753773 L8.56976383,7.75947771 C8.56668674,8.11579399 8.41504144,8.45633733 8.14821785,8.70612538 C7.88139426,8.95591342 7.52127081,9.0944646 7.14714108,9.0912721 Z" id="Shape" fill="#999999" fill-rule="nonzero"></path>
                <path d="M10.497987,18.4999999 C12.8769521,18.5002963 15.1572429,17.6010825 16.836244,16.0024596 C18.5104466,14.4084056 19.4496855,12.2496726 19.45,10.0003761 C19.4502184,5.3117568 15.4489782,1.50048805 10.5009294,1.5 C5.55287675,1.49951194 1.55080143,5.30999729 1.55000012,9.9986206 C1.54919881,14.6872308 5.54995016,18.4989431 10.497987,18.4999999 Z" id="Path" stroke="#979797"></path>
                <path d="M6.3,12 C7.48650513,13.6191406 8.93933411,14.4287109 10.6584869,14.4287109 C12.3776398,14.4287109 13.8304687,13.6633708 15.0169739,12.1326904" id="Path" stroke="#979797" stroke-linecap="round"></path>
            </g>
        </g>
        <g id="图片" transform="translate(29.000000, 305.000000)">
            <g id="符号-图片" fill-rule="evenodd">
                <rect id="Rectangle-path" fill="#666666" fill-rule="nonzero" opacity="0" x="0" y="0" width="21" height="20"></rect>
                <path d="M18.6,2.5 L2.4,2.5 C1.93226156,2.5 1.55,2.87754229 1.55,3.33333333 L1.55,16.6666667 C1.55,17.1224577 1.93226156,17.5 2.4,17.5 L18.6,17.5 C19.0677384,17.5 19.45,17.1224577 19.45,16.6666667 L19.45,3.33333333 C19.45,2.87754229 19.0677384,2.5 18.6,2.5 Z" id="Shape" stroke="#999999" fill-rule="nonzero"></path>
                <ellipse id="Combined-Shape" stroke="#979797" cx="6.825" cy="7.5" rx="1.575" ry="1.5"></ellipse>
            </g>
            <path d="M4.37893066,14.2171631 L6.50627957,11.9271829 C6.88217139,11.522555 7.51490769,11.4992597 7.91953564,11.8751516 C7.94371797,11.8976165 7.96677322,11.9212649 7.98861673,11.94601 L9.25469342,13.3802659 C9.62018733,13.7943101 10.2521279,13.833668 10.6661721,13.4681741 C10.6936217,13.4439432 10.7197197,13.4182231 10.7443483,13.3911299 L13.5513169,10.3032672 C13.9228108,9.89459778 14.5552582,9.86446108 14.9639276,10.235955 C15.041011,10.3060264 15.1066722,10.3877119 15.1585355,10.4780559 L16.9681641,13.6303711" id="Path-26" stroke="#979797" stroke-linecap="round"></path>
        </g>
        <g id="文件夹" transform="translate(58.000000, 305.000000)">
            <g stroke-width="1">
                <rect id="Rectangle-path" fill="#666666" fill-rule="nonzero" opacity="0" x="0" y="0" width="21" height="20"></rect>
                <path d="M18.8087486,4.78571429 L10.3023385,4.78571429 L8.00742109,2.63515775 C7.91475646,2.54832215 7.79252184,2.5 7.6655291,2.5 C7.22769602,2.5 7.22769602,2.5 6.78986294,2.5 C6.35202986,2.5 6.35202986,2.5 5.91419678,2.5 L2.1,2.5 C1.85618566,2.5 1.55,2.82851858 1.55,3.14285714 L1.55,16.8571429 C1.55,17.1714814 1.85618566,17.5 2.1,17.5 L18.9,17.5 C19.1438143,17.5 19.45,17.1714814 19.45,16.8571429 L19.45,5.42857143 C19.45,5.27509721 19.1332937,4.92534085 18.8087486,4.78571429 Z" id="Shape" stroke="#999999" fill-rule="nonzero"></path>
            </g>
            <rect id="Rectangle" fill="#999999" x="3.15" y="7" width="16.8" height="1" rx="0.5"></rect>
        </g>
        <g id="设置" transform="translate(0.000000, 337.000000)" fill="#21C194" fill-rule="nonzero">
            <path d="M23.2062806,9.171264 L21.3483096,10.252944 C21.4525195,10.821024 21.5208728,11.401344 21.5208728,12.000144 C21.5208728,12.598848 21.4525195,13.179168 21.3483576,13.747152 L23.2063286,14.828736 C23.9652709,15.270528 24.2253398,16.249152 23.7871395,17.014368 L22.2003736,19.785696 C21.7622214,20.550864 20.7916911,20.81304 20.0327008,20.371344 L18.1556734,19.278528 C17.2786488,20.031312 16.2817181,20.646528 15.1736652,21.042048 L15.1736652,22.399968 C15.1736652,23.283648 14.4632038,24 13.5868512,24 L10.4132234,24 C9.5368709,24 8.82640951,23.2836 8.82640951,22.399968 L8.82640951,21.042048 C7.71835662,20.64648 6.72142583,20.031264 5.84440129,19.278528 L3.96737391,20.371344 C3.2083836,20.813088 2.23790131,20.550912 1.79979705,19.785696 L0.212839131,17.01432 C-0.225313128,16.249152 0.0347077733,15.270528 0.79365008,14.828688 L2.65162111,13.747104 C2.54745914,13.179168 2.47910585,12.5988 2.47910585,12.000096 C2.47910585,11.401296 2.54745914,10.820976 2.65162111,10.252848 L0.79365008,9.171264 C0.0347077733,8.729472 -0.225313128,7.750848 0.212839131,6.985632 L1.79974905,4.2144 C2.23785331,3.449088 3.2083356,3.186816 3.96732591,3.628704 L5.84440129,4.721424 C6.72142583,3.968592 7.71835662,3.353424 8.82636151,2.957904 L8.82636151,1.60008 C8.82636151,0.7164 9.5368229,0 10.4131754,0 L13.5868032,0 C14.4631558,0 15.1736172,0.7164 15.1736172,1.60008 L15.1736172,2.957904 C16.281622,3.353472 17.2785528,3.968592 18.1555774,4.721424 L20.0326528,3.628704 C20.7916431,3.186816 21.7621734,3.449088 22.2003256,4.2144 L23.7870915,6.985632 C24.2252918,7.7508 23.9652229,8.729472 23.2062806,9.171264 Z M22.0162422,7.092864 L21.2228352,5.707152 C21.0037591,5.324592 20.5184699,5.193408 20.1390228,5.414256 L17.9345812,6.69768 C16.8156321,5.425008 15.3035076,4.512048 13.5868512,4.160592 L13.5868512,2.399904 C13.5868512,1.958112 13.2316446,1.60008 12.7934443,1.60008 L11.2065824,1.60008 C10.7683821,1.60008 10.4131754,1.958112 10.4131754,2.399904 L10.4131754,4.160592 C8.69651906,4.512048 7.18439455,5.425008 6.06544546,6.69768 L3.8610039,5.414256 C3.48155675,5.193408 2.9963156,5.324592 2.77719147,5.707152 L1.98378452,7.092864 C1.76470839,7.475424 1.89474284,7.964784 2.27418999,8.18568 L4.48746371,9.474096 C4.22379474,10.269984 4.06591977,11.11464 4.06591977,12.000144 C4.06591977,12.885456 4.22374674,13.730112 4.48741571,14.525952 L2.27414199,15.814464 C1.89469484,16.035408 1.76466039,16.524672 1.98373651,16.90728 L2.77714347,18.292848 C2.9962676,18.6756 3.48150875,18.806688 3.8609559,18.585648 L6.06530146,17.30232 C7.18429855,18.574992 8.69642306,19.487952 10.4131274,19.839312 L10.4131274,21.600144 C10.4131274,22.041888 10.7683341,22.399968 11.2065344,22.399968 L12.7933963,22.399968 C13.2315966,22.399968 13.5868032,22.04184 13.5868032,21.600144 L13.5868032,19.839312 C15.3035076,19.487904 16.8156321,18.574944 17.9345812,17.30232 L20.1389748,18.585648 C20.5184219,18.80664 21.0037111,18.6756 21.2227872,18.292848 L22.0161942,16.90728 C22.2352703,16.524672 22.1052358,16.035408 21.7257887,15.814464 L19.512515,14.525952 C19.7761839,13.73016 19.9340109,12.885456 19.9340109,12.000144 C19.9340109,11.114688 19.7761839,10.27008 19.512515,9.474192 L21.7257887,8.185728 C22.1052838,7.964784 22.2352703,7.475424 22.0162422,7.092864 Z M12.0000373,15.999888 C9.80908403,15.999888 8.03300255,14.209056 8.03300255,12.000096 C8.03300255,9.790896 9.80908403,7.99992 12.0000373,7.99992 C14.1909426,7.99992 15.9670721,9.790896 15.9670721,12.000096 C15.9670241,14.209104 14.1909426,15.999888 12.0000373,15.999888 Z M12.0000373,9.600048 C10.6854366,9.600048 9.61981646,10.674528 9.61981646,12.000096 C9.61981646,13.325472 10.6854846,14.399856 12.0000373,14.399856 C13.3145421,14.399856 14.3802102,13.32552 14.3802102,12.000096 C14.3802102,10.674528 13.3145421,9.600048 12.0000373,9.600048 Z" id="Shape"></path>
        </g>
        <g id="分组" transform="translate(0.000000, 373.000000)">
            <rect id="Rectangle-3-Copy" stroke="#28C490" x="0.5" y="0.5" width="15" height="15" rx="2"></rect>
            <polygon id="路径" fill="#28C490" points="6.8 12 14.2 4.6 13.5 3.9 6.45 10.95 2.85 7.35 2.15 8.05 6.1 12"></polygon>
        </g>
        <g id="Group-3" transform="translate(24.000000, 373.000000)">
            <circle id="Oval-5" fill="#21C194" cx="7" cy="7" r="3"></circle>
            <circle id="Oval-4-Copy" stroke="#21C194" cx="7" cy="7" r="6.5"></circle>
        </g>
        <g id="免提_关闭" transform="translate(98.000000, 56.000000)" fill="#3D4041">
            <g id="Group-2">
                <g id="Group">
                    <rect id="Rectangle-3" x="3" y="19" width="10" height="2" rx="1"></rect>
                    <path d="M11.9965316,10.1681044 L10,8.17157288 L10,5 C10,3.8954305 9.1045695,3 8,3 C7.1423818,3 6.4108409,3.5398011 6.12660387,4.29817674 L4.64677538,2.81834826 C5.36046818,1.72363361 6.59572725,1 8,1 C10.209139,1 12,2.790861 12,5 L12,10 C12,10.0563142 11.9988363,10.1123566 11.9965316,10.1681044 Z M10.8284271,12.8284271 C10.1045695,13.5522847 9.1045695,14 8,14 C5.790861,14 4,12.209139 4,10 L4,6 L6,8 L6,10 C6,11.1045695 6.8954305,12 8,12 C8.55228475,12 9.05228475,11.7761424 9.41421356,11.4142136 L10.8284271,12.8284271 Z" id="Combined-Shape"></path>
                    <path d="M9.75780573,-2.62760191 L9.75780573,-2.62760191 C10.3100905,-2.62760191 10.7578057,-2.17988666 10.7578057,-1.62760191 L10.7578057,19.1432134 C10.7578057,19.6954981 10.3100905,20.1432134 9.75780573,20.1432134 L9.75780573,20.1432134 C9.20552098,20.1432134 8.75780573,19.6954981 8.75780573,19.1432134 L8.75780573,-1.62760191 C8.75780573,-2.17988666 9.20552098,-2.62760191 9.75780573,-2.62760191 Z" id="Rectangle-5-Copy" transform="translate(9.757806, 8.757806) rotate(-45.000000) translate(-9.757806, -8.757806) "></path>
                    <rect id="Rectangle-2" x="7" y="17" width="2" height="4"></rect>
                    <path d="M13.5958709,15.7171912 C12.1532298,17.1294079 10.1782838,18 8,18 C3.581722,18 5.41083001e-16,14.418278 0,10 L0,9 C-6.76353751e-17,8.44771525 0.44771525,8 1,8 C1.55228475,8 2,8.44771525 2,9 L2,10 C2,13.3137085 4.6862915,16 8,16 C9.62599864,16 11.1009308,15.3532076 12.1815495,14.3028699 L13.5958709,15.7171912 Z M15.3303696,13.2090493 L13.7705047,11.6491844 C13.9199727,11.1252054 14,10.5719484 14,10 L16,10 C16,11.1412709 15.761019,12.2267248 15.3303696,13.2090493 Z" id="Combined-Shape"></path>
                </g>
                <rect id="Rectangle-13" x="0" y="8" width="2" height="3" rx="1"></rect>
                <rect id="Rectangle-13-Copy" x="14" y="8" width="2" height="3" rx="1"></rect>
            </g>
        </g>
        <g id="Group-3" transform="translate(164.000000, 56.000000)">
            <g id="静音">
                <rect id="Rectangle-9-Copy-2" x="0" y="0" width="20" height="20"></rect>
                <path d="M2,6 L2,14 L5.32475972,14 L10,17.8730249 L10,2.14595522 L5.41174839,6 L2,6 Z" id="Rectangle-4" stroke="#3D4041" stroke-width="2"></path>
            </g>
            <g id="Group" transform="translate(11.000000, 5.000000)" fill="#3D4041">
                <rect id="Rectangle" transform="translate(5.000000, 5.000000) rotate(45.000000) translate(-5.000000, -5.000000) " x="4" y="0" width="2" height="10" rx="1"></rect>
                <rect id="Rectangle-Copy" transform="translate(5.000000, 5.000000) rotate(-45.000000) translate(-5.000000, -5.000000) " x="4" y="0" width="2" height="10" rx="1"></rect>
            </g>
        </g>
        <g id="摄像头_关闭" transform="translate(131.000000, 57.000000)">
            <circle id="Oval" stroke="#3D4041" stroke-width="2" cx="8" cy="2" r="1"></circle>
            <path d="M6.40491783,17.1467182 L3.37227483,19 L12.6277252,19 L9.3549979,17 L6.92636784,17 C6.74236308,17 6.56192574,17.0507689 6.40491783,17.1467182 Z" id="Path-2" stroke="#3D4041" stroke-width="2"></path>
            <path d="M2.11803762,4.57753062 L3.53379944,5.99329244 C2.58014499,7.05560449 2,8.46005218 2,10 C2,13.3137085 4.6862915,16 8,16 C9.53994782,16 10.9443955,15.419855 12.0067076,14.4662006 L13.4224694,15.8819624 C11.9969121,17.1968178 10.0922527,18 8,18 C3.581722,18 0,14.418278 0,10 C0,7.9077473 0.803182193,6.00308786 2.11803762,4.57753062 Z M4.58965918,2.76123205 C5.62416627,2.2729994 6.78020192,2 8,2 C12.418278,2 16,5.581722 16,10 C16,11.2197981 15.7270006,12.3758337 15.2387679,13.4103408 L13.7017628,11.8733357 C13.8953074,11.2839032 14,10.6541777 14,10 C14,6.6862915 11.3137085,4 8,4 C7.34582226,4 6.71609679,4.10469262 6.12666428,4.29823716 L4.58965918,2.76123205 Z" id="Combined-Shape" fill="#3D4041"></path>
            <path d="M5.51321399,6.86676738 L6.94624305,8.29979644 C6.37821183,8.6525999 6,9.2821319 6,10 C6,11.1045695 6.8954305,12 8,12 C8.7178681,12 9.3474001,11.6217882 9.70020356,11.053757 L11.1332326,12.486786 C10.4004544,13.408818 9.26926617,14 8,14 C5.790861,14 4,12.209139 4,10 C4,8.73073383 4.59118201,7.59954561 5.51321399,6.86676738 Z M7.83189557,6.00346845 C7.88764342,6.00116373 7.94368581,6 8,6 C10.209139,6 12,7.790861 12,10 C12,10.0563142 11.9988363,10.1123566 11.9965316,10.1681044 L7.83189557,6.00346845 Z" id="Combined-Shape" fill="#3D4041"></path>
            <path d="M9.75780573,-2.62760191 L9.75780573,-2.62760191 C10.3100905,-2.62760191 10.7578057,-2.17988666 10.7578057,-1.62760191 L10.7578057,19.1432134 C10.7578057,19.6954981 10.3100905,20.1432134 9.75780573,20.1432134 L9.75780573,20.1432134 C9.20552098,20.1432134 8.75780573,19.6954981 8.75780573,19.1432134 L8.75780573,-1.62760191 C8.75780573,-2.17988666 9.20552098,-2.62760191 9.75780573,-2.62760191 Z" id="Rectangle-5-Copy" fill="#3D4041" transform="translate(9.757806, 8.757806) rotate(-45.000000) translate(-9.757806, -8.757806) "></path>
        </g>
        <g id="Group-3-Copy-2" transform="translate(78.000000, 200.000000)" fill-rule="nonzero">
            <g id="摄像头-线性">
                <rect id="Rectangle-path" fill="#FFFFFF" opacity="0" x="0" y="0" width="20" height="20"></rect>
                <path d="M9.98000355,6.98638223 C8.51048948,6.98638223 7.3193065,8.17756521 7.3193065,9.64707928 C7.3193065,11.1165981 8.51049427,12.3077963 9.98000355,12.3077963 C11.4495302,12.3077963 12.6407206,11.1166007 12.6407206,9.64707928 C12.6407206,8.17756261 11.449535,6.98638223 9.98000355,6.98638223 Z M9.98000355,12.2542306 C8.54031501,12.2542306 7.37287219,11.0866578 7.37287219,9.64709926 C7.37287219,8.20705712 8.54009907,7.03996789 9.98000355,7.03996789 C11.4199242,7.03996789 12.5871549,8.2070533 12.5871549,9.64709926 C12.5871549,11.0866616 11.4197083,12.2542306 9.98000355,12.2542306 Z M6.57468964,18.226831 C6.59705042,18.2285699 6.62000784,18.2302604 6.64355334,18.231898 C7.24253091,18.2735574 7.93507256,18.2814462 9.95262215,18.2814462 C11.9701618,18.2814462 12.6627037,18.2735574 13.261681,18.231898 C13.2852285,18.2302603 13.3081879,18.2285696 13.3305506,18.2268306 C12.9822126,17.8303905 12.4886762,17.2587173 11.9258264,16.6021724 L11.449869,16.0469845 L12.1399257,15.8049294 C14.7327562,14.8954275 16.5038014,12.4396414 16.5038014,9.64707928 C16.5038014,6.52779834 14.2983305,3.86221262 11.2788394,3.25255685 L10.8360558,3.16315584 L10.8801878,2.71359807 C10.8832563,2.68234031 10.8847911,2.65234846 10.8847911,2.62330139 C10.8847911,2.12367575 10.4796612,1.71855381 9.98002355,1.71855381 C9.48040389,1.71855381 9.07527598,2.12367774 9.07527598,2.62330139 C9.07527598,2.65235358 9.07681135,2.68235968 9.07987721,2.71357696 L9.12403038,3.16315418 L8.68122539,3.25255732 C5.66175448,3.862194 3.45626566,6.52780023 3.45626566,9.64707928 C3.45626566,12.4245821 5.20836015,14.8700197 7.78114352,15.7910075 L8.46487537,16.0357653 L7.99225601,16.5871513 C7.42550332,17.2483589 6.9262991,17.8266701 6.57468964,18.226831 Z M9.83120033,2.6216345 C9.83123132,2.6181691 9.8312458,2.61660129 9.83125671,2.61580468 L9.83111255,2.62163268 L9.83120033,2.6216345 Z M9.83125671,2.61580468 C9.8312656,2.61515562 9.83127211,2.61501855 9.83128324,2.61478419 L9.83127106,2.61522458 L9.83125671,2.61580468 Z M10.1287812,2.61818595 L10.1288113,2.61818512 L10.1287526,2.61611524 L10.1287265,2.61520061 C10.1287548,2.61617765 10.1287658,2.61655815 10.1287812,2.61818595 Z M9.12882166,2.62330141 C9.12882166,2.15307563 9.51004744,1.77211951 9.98000355,1.77211951 C10.4499597,1.77211951 10.8311854,2.15307563 10.8311854,2.62330141 C10.8310713,2.63648425 10.8310713,2.63648425 10.8309064,2.6422358 C10.8308952,2.64263971 10.8308952,2.64263971 10.8308866,2.64294964 C10.8308643,2.64379347 10.8308643,2.64379347 10.8308986,2.64231837 L10.8202574,3.15662986 L10.3064563,3.1313725 C10.1972843,3.12600583 10.0884705,3.12330141 9.98000355,3.12330141 C9.87153658,3.12330141 9.76272284,3.12600583 9.65355083,3.1313725 L9.14328237,3.1564562 L9.12919175,2.64576594 C9.12918573,2.64555031 9.12918573,2.64555031 9.12916835,2.64494633 C9.12913426,2.64376907 9.12913426,2.64376907 9.12908082,2.6418187 C9.12890646,2.6350318 9.12890646,2.6350318 9.12882166,2.62330141 Z M9.23374958,18.2178662 C8.6789125,18.2042679 8.28521433,18.1757047 8.02454701,18.1349465 C7.55620556,18.0617162 7.30802116,17.9438106 7.3336384,17.5155697 L7.33553249,17.4963598 L7.35424719,17.3379372 L8.51950458,16.0495694 L8.76546728,16.0696439 L8.90455575,16.0827193 C9.24030992,16.1384042 9.58249089,16.1678742 9.92897613,16.1705321 L9.97079568,16.1708529 C9.97315056,16.1708613 9.97588547,16.1708676 9.98000354,16.1708771 C10.3566806,16.1708771 10.7295191,16.1388611 11.0959303,16.0757437 L11.3670779,16.0290362 L12.5428782,17.3290721 L12.5665755,17.4747251 L12.570101,17.5006611 L12.5713857,17.5140537 C12.6063256,17.9382799 12.3537638,18.0609841 11.8869739,18.1352316 C11.5158724,18.194259 10.8711854,18.2278605 9.87163701,18.2278605 L9.23125104,18.2278605 L9.23374958,18.2178662 Z M9.98000355,16.1173115 C6.40665005,16.1173115 3.50979137,13.2204595 3.50979137,9.64709928 C3.50979137,6.07375241 6.40665669,3.17688709 9.98000355,3.17688709 C13.5533537,3.17688709 16.4502357,6.07375571 16.4502357,9.64709928 C16.4502357,13.2204562 13.5533604,16.1173115 9.98000355,16.1173115 Z" id="Shape" stroke="#21C194"></path>
            </g>
        </g>
        <g id="免提-copy" transform="translate(52.000000, 200.000000)">
            <rect id="Rectangle-9" x="0" y="0" width="20" height="20"></rect>
            <rect id="Rectangle-3" fill="#21C194" x="5" y="18" width="10" height="1" rx="0.5"></rect>
            <rect id="Rectangle" stroke="#21C194" stroke-linecap="round" x="6" y="2" width="8" height="12" rx="4"></rect>
            <path d="M15.9632568,9 C15.9632568,12.8659932 13.8659932,16 10,16 C6.13400675,16 4.05749512,12.8659932 4.05749512,9" id="Rectangle-Copy" stroke="#21C194" stroke-linecap="round"></path>
            <rect id="Rectangle-2" fill="#21C194" x="9.5" y="16" width="1" height="3"></rect>
        </g>
        <g id="分组" transform="translate(104.000000, 200.000000)">
            <rect id="Rectangle-7-Copy-25" x="0" y="0" width="20" height="20"></rect>
            <g id="Group-2-Copy" transform="translate(2.000000, 2.000000)">
                <circle id="Oval" stroke="#21C194" stroke-linecap="round" cx="8" cy="8" r="8"></circle>
                <rect id="Rectangle-2" fill="#21C194" x="6" y="3" width="4" height="1" rx="0.5"></rect>
                <path d="M6.5,5.5 L6.5,8.5 L4.07051515,8.5 L8.02021423,13.2189732 L11.9354705,8.5 L9.5,8.5 L9.5,5.5 L6.5,5.5 Z" id="Combined-Shape" stroke="#21C194"></path>
            </g>
        </g>
        <g id="Group-3-Copy" transform="translate(156.000000, 168.721825)" fill-rule="nonzero">
            <g id="摄像头-线性">
                <rect id="Rectangle-path" fill="#FFFFFF" opacity="0" x="0" y="0" width="20" height="20"></rect>
                <path d="M9.98000355,6.98638223 C8.51048948,6.98638223 7.3193065,8.17756521 7.3193065,9.64707928 C7.3193065,11.1165981 8.51049427,12.3077963 9.98000355,12.3077963 C11.4495302,12.3077963 12.6407206,11.1166007 12.6407206,9.64707928 C12.6407206,8.17756261 11.449535,6.98638223 9.98000355,6.98638223 Z M9.98000355,12.2542306 C8.54031501,12.2542306 7.37287219,11.0866578 7.37287219,9.64709926 C7.37287219,8.20705712 8.54009907,7.03996789 9.98000355,7.03996789 C11.4199242,7.03996789 12.5871549,8.2070533 12.5871549,9.64709926 C12.5871549,11.0866616 11.4197083,12.2542306 9.98000355,12.2542306 Z M6.57468964,18.226831 C6.59705042,18.2285699 6.62000784,18.2302604 6.64355334,18.231898 C7.24253091,18.2735574 7.93507256,18.2814462 9.95262215,18.2814462 C11.9701618,18.2814462 12.6627037,18.2735574 13.261681,18.231898 C13.2852285,18.2302603 13.3081879,18.2285696 13.3305506,18.2268306 C12.9822126,17.8303905 12.4886762,17.2587173 11.9258264,16.6021724 L11.449869,16.0469845 L12.1399257,15.8049294 C14.7327562,14.8954275 16.5038014,12.4396414 16.5038014,9.64707928 C16.5038014,6.52779834 14.2983305,3.86221262 11.2788394,3.25255685 L10.8360558,3.16315584 L10.8801878,2.71359807 C10.8832563,2.68234031 10.8847911,2.65234846 10.8847911,2.62330139 C10.8847911,2.12367575 10.4796612,1.71855381 9.98002355,1.71855381 C9.48040389,1.71855381 9.07527598,2.12367774 9.07527598,2.62330139 C9.07527598,2.65235358 9.07681135,2.68235968 9.07987721,2.71357696 L9.12403038,3.16315418 L8.68122539,3.25255732 C5.66175448,3.862194 3.45626566,6.52780023 3.45626566,9.64707928 C3.45626566,12.4245821 5.20836015,14.8700197 7.78114352,15.7910075 L8.46487537,16.0357653 L7.99225601,16.5871513 C7.42550332,17.2483589 6.9262991,17.8266701 6.57468964,18.226831 Z M9.83120033,2.6216345 C9.83123132,2.6181691 9.8312458,2.61660129 9.83125671,2.61580468 L9.83111255,2.62163268 L9.83120033,2.6216345 Z M9.83125671,2.61580468 C9.8312656,2.61515562 9.83127211,2.61501855 9.83128324,2.61478419 L9.83127106,2.61522458 L9.83125671,2.61580468 Z M10.1287812,2.61818595 L10.1288113,2.61818512 L10.1287526,2.61611524 L10.1287265,2.61520061 C10.1287548,2.61617765 10.1287658,2.61655815 10.1287812,2.61818595 Z M9.12882166,2.62330141 C9.12882166,2.15307563 9.51004744,1.77211951 9.98000355,1.77211951 C10.4499597,1.77211951 10.8311854,2.15307563 10.8311854,2.62330141 C10.8310713,2.63648425 10.8310713,2.63648425 10.8309064,2.6422358 C10.8308952,2.64263971 10.8308952,2.64263971 10.8308866,2.64294964 C10.8308643,2.64379347 10.8308643,2.64379347 10.8308986,2.64231837 L10.8202574,3.15662986 L10.3064563,3.1313725 C10.1972843,3.12600583 10.0884705,3.12330141 9.98000355,3.12330141 C9.87153658,3.12330141 9.76272284,3.12600583 9.65355083,3.1313725 L9.14328237,3.1564562 L9.12919175,2.64576594 C9.12918573,2.64555031 9.12918573,2.64555031 9.12916835,2.64494633 C9.12913426,2.64376907 9.12913426,2.64376907 9.12908082,2.6418187 C9.12890646,2.6350318 9.12890646,2.6350318 9.12882166,2.62330141 Z M9.23374958,18.2178662 C8.6789125,18.2042679 8.28521433,18.1757047 8.02454701,18.1349465 C7.55620556,18.0617162 7.30802116,17.9438106 7.3336384,17.5155697 L7.33553249,17.4963598 L7.35424719,17.3379372 L8.51950458,16.0495694 L8.76546728,16.0696439 L8.90455575,16.0827193 C9.24030992,16.1384042 9.58249089,16.1678742 9.92897613,16.1705321 L9.97079568,16.1708529 C9.97315056,16.1708613 9.97588547,16.1708676 9.98000354,16.1708771 C10.3566806,16.1708771 10.7295191,16.1388611 11.0959303,16.0757437 L11.3670779,16.0290362 L12.5428782,17.3290721 L12.5665755,17.4747251 L12.570101,17.5006611 L12.5713857,17.5140537 C12.6063256,17.9382799 12.3537638,18.0609841 11.8869739,18.1352316 C11.5158724,18.194259 10.8711854,18.2278605 9.87163701,18.2278605 L9.23125104,18.2278605 L9.23374958,18.2178662 Z M9.98000355,16.1173115 C6.40665005,16.1173115 3.50979137,13.2204595 3.50979137,9.64709928 C3.50979137,6.07375241 6.40665669,3.17688709 9.98000355,3.17688709 C13.5533537,3.17688709 16.4502357,6.07375571 16.4502357,9.64709928 C16.4502357,13.2204562 13.5533604,16.1173115 9.98000355,16.1173115 Z" id="Shape" stroke="#979797"></path>
            </g>
        </g>
        <rect id="Rectangle-17-Copy" fill="#979797" transform="translate(165.778175, 178.500000) rotate(-45.000000) translate(-165.778175, -178.500000) " x="165.278175" y="168" width="1" height="21" rx="0.5"></rect>
        <g id="免提" transform="translate(179.556349, 168.721825)">
            <rect id="Rectangle-9" x="0" y="0" width="20" height="20"></rect>
            <rect id="Rectangle-3" stroke="#979797" x="5.5" y="18.5" width="9" height="1" rx="0.5"></rect>
            <rect id="Rectangle" stroke="#979797" x="6.5" y="2.5" width="7" height="11" rx="3.5"></rect>
            <path d="M15.9632568,9 C15.9632568,12.8659932 13.8659932,16 10,16 C6.13400675,16 4.05749512,12.8659932 4.05749512,9" id="Rectangle-Copy" stroke="#979797" stroke-linecap="round"></path>
            <rect id="Rectangle-2" stroke="#979797" stroke-width="1.4" fill="#D8D8D8" x="10.2" y="16.7" width="1" height="1.6"></rect>
        </g>
        <rect id="Rectangle-17-Copy" fill="#979797" transform="translate(189.334524, 178.500000) rotate(-45.000000) translate(-189.334524, -178.500000) " x="188.834524" y="168" width="1" height="21" rx="0.5"></rect>
        <g id="免提-copy" transform="translate(179.560000, 200.000000)">
            <rect id="Rectangle-9" x="0" y="0" width="20" height="20"></rect>
            <rect id="Rectangle-3" fill="#21C194" x="5" y="18" width="10" height="1" rx="0.5"></rect>
            <rect id="Rectangle" stroke="#21C194" stroke-linecap="round" x="6" y="2" width="8" height="12" rx="4"></rect>
            <path d="M15.9632568,9 C15.9632568,12.8659932 13.8659932,16 10,16 C6.13400675,16 4.05749512,12.8659932 4.05749512,9" id="Rectangle-Copy" stroke="#21C194" stroke-linecap="round"></path>
            <rect id="Rectangle-2" fill="#21C194" x="9.5" y="16" width="1" height="3"></rect>
        </g>
        <rect id="Rectangle-17-Copy" fill="#21C194" transform="translate(189.338175, 210.221825) rotate(-45.000000) translate(-189.338175, -210.221825) " x="188.838175" y="199.721825" width="1" height="21" rx="0.5"></rect>
        <g id="Group-3-Copy-2" transform="translate(156.112698, 200.000000)" fill-rule="nonzero">
            <g id="摄像头-线性">
                <rect id="Rectangle-path" fill="#FFFFFF" opacity="0" x="0" y="0" width="20" height="20"></rect>
                <path d="M9.98000355,6.98638223 C8.51048948,6.98638223 7.3193065,8.17756521 7.3193065,9.64707928 C7.3193065,11.1165981 8.51049427,12.3077963 9.98000355,12.3077963 C11.4495302,12.3077963 12.6407206,11.1166007 12.6407206,9.64707928 C12.6407206,8.17756261 11.449535,6.98638223 9.98000355,6.98638223 Z M9.98000355,12.2542306 C8.54031501,12.2542306 7.37287219,11.0866578 7.37287219,9.64709926 C7.37287219,8.20705712 8.54009907,7.03996789 9.98000355,7.03996789 C11.4199242,7.03996789 12.5871549,8.2070533 12.5871549,9.64709926 C12.5871549,11.0866616 11.4197083,12.2542306 9.98000355,12.2542306 Z M6.57468964,18.226831 C6.59705042,18.2285699 6.62000784,18.2302604 6.64355334,18.231898 C7.24253091,18.2735574 7.93507256,18.2814462 9.95262215,18.2814462 C11.9701618,18.2814462 12.6627037,18.2735574 13.261681,18.231898 C13.2852285,18.2302603 13.3081879,18.2285696 13.3305506,18.2268306 C12.9822126,17.8303905 12.4886762,17.2587173 11.9258264,16.6021724 L11.449869,16.0469845 L12.1399257,15.8049294 C14.7327562,14.8954275 16.5038014,12.4396414 16.5038014,9.64707928 C16.5038014,6.52779834 14.2983305,3.86221262 11.2788394,3.25255685 L10.8360558,3.16315584 L10.8801878,2.71359807 C10.8832563,2.68234031 10.8847911,2.65234846 10.8847911,2.62330139 C10.8847911,2.12367575 10.4796612,1.71855381 9.98002355,1.71855381 C9.48040389,1.71855381 9.07527598,2.12367774 9.07527598,2.62330139 C9.07527598,2.65235358 9.07681135,2.68235968 9.07987721,2.71357696 L9.12403038,3.16315418 L8.68122539,3.25255732 C5.66175448,3.862194 3.45626566,6.52780023 3.45626566,9.64707928 C3.45626566,12.4245821 5.20836015,14.8700197 7.78114352,15.7910075 L8.46487537,16.0357653 L7.99225601,16.5871513 C7.42550332,17.2483589 6.9262991,17.8266701 6.57468964,18.226831 Z M9.83120033,2.6216345 C9.83123132,2.6181691 9.8312458,2.61660129 9.83125671,2.61580468 L9.83111255,2.62163268 L9.83120033,2.6216345 Z M9.83125671,2.61580468 C9.8312656,2.61515562 9.83127211,2.61501855 9.83128324,2.61478419 L9.83127106,2.61522458 L9.83125671,2.61580468 Z M10.1287812,2.61818595 L10.1288113,2.61818512 L10.1287526,2.61611524 L10.1287265,2.61520061 C10.1287548,2.61617765 10.1287658,2.61655815 10.1287812,2.61818595 Z M9.12882166,2.62330141 C9.12882166,2.15307563 9.51004744,1.77211951 9.98000355,1.77211951 C10.4499597,1.77211951 10.8311854,2.15307563 10.8311854,2.62330141 C10.8310713,2.63648425 10.8310713,2.63648425 10.8309064,2.6422358 C10.8308952,2.64263971 10.8308952,2.64263971 10.8308866,2.64294964 C10.8308643,2.64379347 10.8308643,2.64379347 10.8308986,2.64231837 L10.8202574,3.15662986 L10.3064563,3.1313725 C10.1972843,3.12600583 10.0884705,3.12330141 9.98000355,3.12330141 C9.87153658,3.12330141 9.76272284,3.12600583 9.65355083,3.1313725 L9.14328237,3.1564562 L9.12919175,2.64576594 C9.12918573,2.64555031 9.12918573,2.64555031 9.12916835,2.64494633 C9.12913426,2.64376907 9.12913426,2.64376907 9.12908082,2.6418187 C9.12890646,2.6350318 9.12890646,2.6350318 9.12882166,2.62330141 Z M9.23374958,18.2178662 C8.6789125,18.2042679 8.28521433,18.1757047 8.02454701,18.1349465 C7.55620556,18.0617162 7.30802116,17.9438106 7.3336384,17.5155697 L7.33553249,17.4963598 L7.35424719,17.3379372 L8.51950458,16.0495694 L8.76546728,16.0696439 L8.90455575,16.0827193 C9.24030992,16.1384042 9.58249089,16.1678742 9.92897613,16.1705321 L9.97079568,16.1708529 C9.97315056,16.1708613 9.97588547,16.1708676 9.98000354,16.1708771 C10.3566806,16.1708771 10.7295191,16.1388611 11.0959303,16.0757437 L11.3670779,16.0290362 L12.5428782,17.3290721 L12.5665755,17.4747251 L12.570101,17.5006611 L12.5713857,17.5140537 C12.6063256,17.9382799 12.3537638,18.0609841 11.8869739,18.1352316 C11.5158724,18.194259 10.8711854,18.2278605 9.87163701,18.2278605 L9.23125104,18.2278605 L9.23374958,18.2178662 Z M9.98000355,16.1173115 C6.40665005,16.1173115 3.50979137,13.2204595 3.50979137,9.64709928 C3.50979137,6.07375241 6.40665669,3.17688709 9.98000355,3.17688709 C13.5533537,3.17688709 16.4502357,6.07375571 16.4502357,9.64709928 C16.4502357,13.2204562 13.5533604,16.1173115 9.98000355,16.1173115 Z" id="Shape" stroke="#21C194"></path>
            </g>
        </g>
        <rect id="Rectangle-17-Copy" fill="#21C194" transform="translate(166.334524, 209.778175) rotate(-45.000000) translate(-166.334524, -209.778175) " x="165.834524" y="199.278175" width="1" height="21" rx="0.5"></rect>
        <g id="椭圆形-copy">
            <use fill="black" fill-opacity="1" filter="url(#filter-3)" xlink:href="#path-2"></use>
            <use fill="#FCFCFC" fill-rule="evenodd" xlink:href="#path-2"></use>
        </g>
        <g id="挂断" transform="translate(34.000000, 264.000000)">
            <rect id="Rectangle-9-Copy-3" x="0" y="0" width="28" height="28"></rect>
            <circle id="Oval-5" fill="#04B7A1" cx="14" cy="14" r="14"></circle>
            <path d="M6.02522669,17.8 C6.01142577,17.7957656 5.99784986,17.7892401 5.98376766,17.7876241 C5.62520615,17.746037 5.34134964,17.5643671 5.12942295,17.2470328 C4.97718151,17.0190709 4.87041186,16.7654775 4.79077528,16.4995697 C4.7195205,16.2616048 4.66302297,16.0183417 4.6,15.7774107 L4.6,15.5434961 C4.63159587,15.4231738 4.6530098,15.2982488 4.69675648,15.1834292 C4.80500748,14.8994177 4.99497645,14.6818066 5.20512177,14.4842423 C5.49122843,14.215266 5.81168739,14.000846 6.13514655,13.7911922 C6.66657589,13.4467742 7.21197491,13.1347584 7.79857044,12.9141198 C8.62105677,12.604702 9.47106994,12.4409106 10.3326714,12.3388146 C10.9952283,12.2603248 11.6601665,12.2212129 12.3264549,12.2086324 C12.3450186,12.2082847 12.3634886,12.2029866 12.3819774,12.2 L13.5927834,12.2 C13.6154725,12.2032321 13.6380677,12.2079778 13.6608505,12.2094916 C14.2225069,12.2471511 14.7849508,12.2741735 15.3456508,12.3244749 C16.034572,12.386293 16.7160676,12.5087428 17.3887876,12.6834781 C18.334226,12.9290527 19.2406617,13.2716297 20.0294145,13.9203516 C20.3312722,14.1686058 20.6475684,14.3958314 20.9128986,14.692996 C21.0959484,14.8980267 21.2557278,15.1211406 21.3425837,15.3960082 C21.3662852,15.470959 21.3810987,15.5492851 21.4,15.6260361 L21.4,15.8599303 C21.3578659,16.0341747 21.317757,16.2090533 21.2731103,16.3825203 C21.1988553,16.6709093 21.1277505,16.9608326 20.9930978,17.2254108 C20.8516383,17.5034081 20.6400866,17.681171 20.3538487,17.7458734 C20.2455227,17.7703797 20.134834,17.782326 20.0252329,17.7999795 L19.7855919,17.7999795 C19.7608402,17.7963179 19.7361636,17.7914494 19.7112994,17.7891992 C19.5836034,17.7777438 19.4552698,17.7723639 19.3282675,17.7550377 C18.5735295,17.6519393 17.841668,17.4423673 17.121526,17.1809394 C16.7463696,17.0447636 16.508735,16.7616727 16.4214104,16.3433675 C16.3806826,16.1483807 16.3611626,15.9454978 16.3542434,15.7453152 C16.3409112,15.3594532 16.1852008,15.074869 15.8770802,14.8928514 C15.7671415,14.827883 15.6493462,14.774411 15.5299757,14.7337035 C15.1334054,14.5984483 14.7225091,14.5601955 14.310394,14.555327 C13.5582061,14.5464286 12.805887,14.5489856 12.0536429,14.5485969 C11.6310271,14.5483924 11.2090676,14.5633662 10.7923584,14.6499565 C10.5353537,14.7033468 10.2856995,14.781141 10.0639284,14.9401661 C9.84515749,15.0970638 9.70634194,15.3129772 9.67437105,15.5993615 C9.65762618,15.7492428 9.65856374,15.9013742 9.64540036,16.0518487 C9.59794093,16.5943424 9.35993125,16.9825978 8.88184923,17.1829236 C8.1721142,17.4803542 7.43618367,17.6556623 6.68405206,17.7585561 C6.56976315,17.7741845 6.45506172,17.7862536 6.3405478,17.7999795 L6.02522669,17.8 Z" id="Shape" fill="#FFFFFF" fill-rule="nonzero" transform="translate(13.000000, 15.000000) rotate(-129.000000) translate(-13.000000, -15.000000) "></path>
        </g>
        <g id="挂断" transform="translate(67.000000, 264.000000)">
            <g>
                <rect id="Rectangle-9-Copy-3" x="0" y="0" width="28" height="28"></rect>
                <circle id="Oval-5" fill="#F44436" cx="14" cy="14" r="14"></circle>
                <path d="M7.02522669,16.8 C7.01142577,16.7957656 6.99784986,16.7892401 6.98376766,16.7876241 C6.62520615,16.746037 6.34134964,16.5643671 6.12942295,16.2470328 C5.97718151,16.0190709 5.87041186,15.7654775 5.79077528,15.4995697 C5.7195205,15.2616048 5.66302297,15.0183417 5.6,14.7774107 L5.6,14.5434961 C5.63159587,14.4231738 5.6530098,14.2982488 5.69675648,14.1834292 C5.80500748,13.8994177 5.99497645,13.6818066 6.20512177,13.4842423 C6.49122843,13.215266 6.81168739,13.000846 7.13514655,12.7911922 C7.66657589,12.4467742 8.21197491,12.1347584 8.79857044,11.9141198 C9.62105677,11.604702 10.4710699,11.4409106 11.3326714,11.3388146 C11.9952283,11.2603248 12.6601665,11.2212129 13.3264549,11.2086324 C13.3450186,11.2082847 13.3634886,11.2029866 13.3819774,11.2 L14.5927834,11.2 C14.6154725,11.2032321 14.6380677,11.2079778 14.6608505,11.2094916 C15.2225069,11.2471511 15.7849508,11.2741735 16.3456508,11.3244749 C17.034572,11.386293 17.7160676,11.5087428 18.3887876,11.6834781 C19.334226,11.9290527 20.2406617,12.2716297 21.0294145,12.9203516 C21.3312722,13.1686058 21.6475684,13.3958314 21.9128986,13.692996 C22.0959484,13.8980267 22.2557278,14.1211406 22.3425837,14.3960082 C22.3662852,14.470959 22.3810987,14.5492851 22.4,14.6260361 L22.4,14.8599303 C22.3578659,15.0341747 22.317757,15.2090533 22.2731103,15.3825203 C22.1988553,15.6709093 22.1277505,15.9608326 21.9930978,16.2254108 C21.8516383,16.5034081 21.6400866,16.681171 21.3538487,16.7458734 C21.2455227,16.7703797 21.134834,16.782326 21.0252329,16.7999795 L20.7855919,16.7999795 C20.7608402,16.7963179 20.7361636,16.7914494 20.7112994,16.7891992 C20.5836034,16.7777438 20.4552698,16.7723639 20.3282675,16.7550377 C19.5735295,16.6519393 18.841668,16.4423673 18.121526,16.1809394 C17.7463696,16.0447636 17.508735,15.7616727 17.4214104,15.3433675 C17.3806826,15.1483807 17.3611626,14.9454978 17.3542434,14.7453152 C17.3409112,14.3594532 17.1852008,14.074869 16.8770802,13.8928514 C16.7671415,13.827883 16.6493462,13.774411 16.5299757,13.7337035 C16.1334054,13.5984483 15.7225091,13.5601955 15.310394,13.555327 C14.5582061,13.5464286 13.805887,13.5489856 13.0536429,13.5485969 C12.6310271,13.5483924 12.2090676,13.5633662 11.7923584,13.6499565 C11.5353537,13.7033468 11.2856995,13.781141 11.0639284,13.9401661 C10.8451575,14.0970638 10.7063419,14.3129772 10.6743711,14.5993615 C10.6576262,14.7492428 10.6585637,14.9013742 10.6454004,15.0518487 C10.5979409,15.5943424 10.3599312,15.9825978 9.88184923,16.1829236 C9.1721142,16.4803542 8.43618367,16.6556623 7.68405206,16.7585561 C7.56976315,16.7741845 7.45506172,16.7862536 7.3405478,16.7999795 L7.02522669,16.8 Z" id="Shape" fill="#FFFFFF" fill-rule="nonzero"></path>
                <path d="" id="Path-25" stroke="#979797"></path>
            </g>
        </g>
        <g id="分组-6" transform="translate(0.000000, 401.000000)">
            <g id="分组-4-copy" fill="#3D4041" opacity="0.699999988">
                <g id="分组-2">
                    <circle id="椭圆形" cx="18" cy="18" r="18"></circle>
                </g>
            </g>
            <g id="操作-全屏-展开" transform="translate(6.000000, 6.000000)">
                <rect id="矩形" fill="#000000" opacity="0" x="0" y="0" width="24" height="24"></rect>
                <path d="M19.1895,3.75 L13.5375,9.402 C13.2532708,9.69628417 13.2573357,10.1640636 13.5466361,10.4533639 C13.8359364,10.7426643 14.3037158,10.7467292 14.598,10.4625 L20.25,4.8105 L20.25,7.5 C20.25,7.91421356 20.5857864,8.25 21,8.25 C21.4142136,8.25 21.75,7.91421356 21.75,7.5 L21.75,3 C21.7506,2.8009043 21.671775,2.60979006 21.5309925,2.46900751 C21.3902099,2.32822495 21.1990957,2.24940001 21,2.25 L16.5,2.25 C16.0857864,2.25 15.75,2.58578644 15.75,3 C15.75,3.41421356 16.0857864,3.75 16.5,3.75 L19.1895,3.75 Z M2.46975,21.53025 C2.3288778,21.389771 2.24979448,21.1989454 2.25,21 L2.25,16.5 C2.25000001,16.0857864 2.58578644,15.75 3,15.75 C3.41421356,15.75 3.74999999,16.0857864 3.75,16.5 L3.75,19.1895 L9.402,13.5375 C9.69628417,13.2532708 10.1640636,13.2573357 10.4533639,13.5466361 C10.7426643,13.8359364 10.7467292,14.3037158 10.4625,14.598 L4.8105,20.25 L7.5,20.25 C7.91421356,20.25 8.25,20.5857864 8.25,21 C8.25,21.4142136 7.91421356,21.75 7.5,21.75 L3,21.75 C2.80105459,21.7502055 2.61022897,21.6711222 2.46975,21.53025 Z" id="形状" fill="#FFFFFF" fill-rule="nonzero"></path>
            </g>
        </g>
        <g id="分组-6" transform="translate(44.000000, 401.000000)" fill="#3D4041" opacity="0.699999988">
            <g id="分组-4-copy">
                <g id="分组-2">
                    <circle id="椭圆形" cx="18" cy="18" r="18"></circle>
                </g>
            </g>
        </g>
        <g id="操作-全屏-展开" transform="translate(50.000000, 407.000000)">
            <rect id="矩形" fill="#000000" opacity="0" x="0" y="0" width="24" height="24"></rect>
            <path d="M9.11253362,14.75 L3.46053362,20.402 C3.17630446,20.6962842 3.18036934,21.1640636 3.46966968,21.4533639 C3.75897003,21.7426643 4.22674945,21.7467292 4.52103362,21.4625 L10.1730336,15.8105 L10.1730336,18.5 C10.1730336,18.9142136 10.5088201,19.25 10.9230336,19.25 C11.3372472,19.25 11.6730336,18.9142136 11.6730336,18.5 L11.6730336,14 C11.6736336,13.8009043 11.5948087,13.6097901 11.4540261,13.4690075 C11.3132436,13.328225 11.1221293,13.2494 10.9230336,13.25 L6.42303362,13.25 C6.00882005,13.25 5.67303362,13.5857864 5.67303362,14 C5.67303362,14.4142136 6.00882005,14.75 6.42303362,14.75 L9.11253362,14.75 Z M13.46975,10.4532806 C13.3288778,10.3128016 13.2497945,10.121976 13.25,9.92303062 L13.25,5.42303062 C13.25,5.00881706 13.5857864,4.67303063 14,4.67303063 C14.4142136,4.67303063 14.75,5.00881706 14.75,5.42303062 L14.75,8.11253062 L20.402,2.46053062 C20.6962842,2.17630146 21.1640636,2.18036633 21.4533639,2.46966668 C21.7426643,2.75896703 21.7467292,3.22674645 21.4625,3.52103062 L15.8105,9.17303062 L18.5,9.17303062 C18.9142136,9.17303062 19.25,9.50881705 19.25,9.92303062 C19.25,10.3372442 18.9142136,10.6730306 18.5,10.6730306 L14,10.6730306 C13.8010546,10.6732361 13.610229,10.5941528 13.46975,10.4532806 Z" id="形状" fill="#FFFFFF" fill-rule="nonzero"></path>
        </g>
        <g id="画板缩略图" transform="translate(83.000000, 232.000000)">
            <rect id="Rectangle-9-Copy-7" x="0" y="0" width="18.5185185" height="18.5185185"></rect>
            <g id="1" transform="translate(0.925926, 1.925926)" stroke="#21C194" stroke-width="1.6">
                <path d="M11.962963,10.1166494 L9.10519087,11.5455355 C8.61929528,11.7884833 8.04737139,11.7884833 7.56147579,11.5455355 L4.7037037,10.1166494 L1.0881916,11.9244055 C1.06382148,11.9365905 1.04406087,11.9563511 1.03187581,11.9807213 C1.00077346,12.042926 1.0259869,12.1185663 1.0881916,12.1496686 L8.27701755,15.7440816 C8.31246916,15.7618074 8.35419751,15.7618074 8.38964912,15.7440816 L15.5784751,12.1496686 C15.6028452,12.1374836 15.6226058,12.1177229 15.6347909,12.0933528 C15.6658932,12.0311481 15.6406798,11.9555078 15.5784751,11.9244055 L11.962963,10.1166494 Z" id="Combined-Shape"></path>
                <path d="M12.962963,6.91294571 L9.10519087,8.84183175 C8.61929528,9.08477955 8.04737139,9.08477955 7.56147579,8.84183175 L3.7037037,6.91294571 L1.0881916,8.22070176 C1.06382148,8.23288682 1.04406087,8.25264743 1.03187581,8.27701755 C1.00077346,8.33922225 1.0259869,8.41486256 1.0881916,8.44596491 L8.27701755,12.0403779 C8.31246916,12.0581037 8.35419751,12.0581037 8.38964912,12.0403779 L15.5784751,8.44596491 C15.6028452,8.43377985 15.6226058,8.41401924 15.6347909,8.38964912 C15.6658932,8.32744442 15.6406798,8.25180411 15.5784751,8.22070176 L12.962963,6.91294571 Z" id="Combined-Shape" fill-opacity="0" fill="#FFFFFF"></path>
                <path d="M8.38964912,0.922585084 C8.35419751,0.904859279 8.31246916,0.904859279 8.27701755,0.922585084 L1.0881916,4.51699806 C1.06382148,4.52918312 1.04406087,4.54894373 1.03187581,4.57331384 C1.00077346,4.63551854 1.0259869,4.71115885 1.0881916,4.7422612 L8.27701755,8.33667418 C8.31246916,8.35439998 8.35419751,8.35439998 8.38964912,8.33667418 L15.5784751,4.7422612 C15.6028452,4.73007614 15.6226058,4.71031553 15.6347909,4.68594542 C15.6658932,4.62374072 15.6406798,4.54810041 15.5784751,4.51699806 L8.38964912,0.922585084 Z" id="Polygon" fill-opacity="0" fill="#FFFFFF"></path>
            </g>
        </g>
        <g id="屏幕共享" transform="translate(114.000000, 232.000000)">
            <g id="共享白板-copy">
                <rect id="Rectangle-2" x="0" y="0" width="20" height="20"></rect>
                <rect id="Rectangle-3" stroke="#21C194" stroke-width="1.6" x="0.8" y="1.8" width="18.4" height="13.4" rx="2"></rect>
                <rect id="Rectangle-5" fill="#21C194" x="6" y="18" width="8" height="1.6" rx="0.8"></rect>
            </g>
            <path d="M10.4759586,6.09832786 C10.2251978,5.88088752 10.0206939,6.03938319 10.0206939,6.42317849 L10.0206939,7.44619599 L9.97930615,7.44619599 C8.51369446,7.44619599 6.02069385,9.26824125 6,10.8885648 C6,11.018243 6.09738284,11.0549197 6.19111382,10.8885648 C6.66463786,9.97950694 8.65489957,9.50794958 9.66889836,9.50794958 L10.0206939,9.50794958 L10.0206939,10.587292 C10.0206939,10.9095229 10.2422398,11.129583 10.4942179,10.9121426 L12.8119294,8.91064358 C13.0626902,8.69451312 13.0626902,8.33953522 12.8119294,8.12209488 L10.4759586,6.09832786 Z" id="Path" fill="#21C194"></path>
        </g>
        <g id="共享白板" transform="translate(150.000000, 232.000000)">
            <g>
                <rect id="Rectangle-2" x="0" y="0" width="20" height="20"></rect>
                <rect id="Rectangle-3" stroke="#21C194" stroke-width="1.6" x="1.8" y="1.8" width="16.4" height="13.4" rx="2"></rect>
                <rect id="Rectangle-5" fill="#21C194" x="2" y="18" width="16" height="1.6" rx="0.8"></rect>
            </g>
            <rect id="Rectangle-7" fill="#21C194" x="5" y="10" width="10" height="1.6" rx="0.8"></rect>
            <rect id="Rectangle-7-Copy" fill="#21C194" x="5" y="6" width="2" height="1.6" rx="0.8"></rect>
            <rect id="Rectangle-7-Copy-2" fill="#21C194" x="8" y="6" width="7" height="1.6" rx="0.8"></rect>
        </g>
        <g id="画板缩略图" transform="translate(186.000000, 231.721825)">
            <rect id="Rectangle-9-Copy-7" x="0" y="0" width="18.5185185" height="18.5185185"></rect>
            <g id="1" transform="translate(0.925926, 1.925926)" stroke="#A0A0A0" stroke-width="1.6">
                <path d="M11.962963,10.1166494 L9.10519087,11.5455355 C8.61929528,11.7884833 8.04737139,11.7884833 7.56147579,11.5455355 L4.7037037,10.1166494 L1.0881916,11.9244055 C1.06382148,11.9365905 1.04406087,11.9563511 1.03187581,11.9807213 C1.00077346,12.042926 1.0259869,12.1185663 1.0881916,12.1496686 L8.27701755,15.7440816 C8.31246916,15.7618074 8.35419751,15.7618074 8.38964912,15.7440816 L15.5784751,12.1496686 C15.6028452,12.1374836 15.6226058,12.1177229 15.6347909,12.0933528 C15.6658932,12.0311481 15.6406798,11.9555078 15.5784751,11.9244055 L11.962963,10.1166494 Z" id="Combined-Shape"></path>
                <path d="M12.962963,6.91294571 L9.10519087,8.84183175 C8.61929528,9.08477955 8.04737139,9.08477955 7.56147579,8.84183175 L3.7037037,6.91294571 L1.0881916,8.22070176 C1.06382148,8.23288682 1.04406087,8.25264743 1.03187581,8.27701755 C1.00077346,8.33922225 1.0259869,8.41486256 1.0881916,8.44596491 L8.27701755,12.0403779 C8.31246916,12.0581037 8.35419751,12.0581037 8.38964912,12.0403779 L15.5784751,8.44596491 C15.6028452,8.43377985 15.6226058,8.41401924 15.6347909,8.38964912 C15.6658932,8.32744442 15.6406798,8.25180411 15.5784751,8.22070176 L12.962963,6.91294571 Z" id="Combined-Shape" fill-opacity="0" fill="#FFFFFF"></path>
                <path d="M8.37902567,0.900479474 C8.34963875,0.889036537 8.31702792,0.889036537 8.287641,0.900479474 L1.58019007,3.51228591 C1.54732661,3.52508257 1.52133534,3.55107384 1.50853868,3.5839373 C1.4833035,3.64874444 1.51538292,3.72173817 1.58019007,3.74697335 L8.287641,6.35877979 C8.31702792,6.37022272 8.34963875,6.37022272 8.37902567,6.35877979 L15.0864766,3.74697335 C15.1193401,3.73417669 15.1453313,3.70818542 15.158128,3.67532196 C15.1833632,3.61051482 15.1512837,3.53752109 15.0864766,3.51228591 L8.37902567,0.900479474 Z" id="Polygon" fill-opacity="0" fill="#FFFFFF"></path>
            </g>
        </g>
        <g id="免提" opacity="0.289318266" transform="translate(199.000000, 57.000000)">
            <g>
                <rect id="Rectangle-9" x="0" y="0" width="20" height="20"></rect>
                <rect id="Rectangle-3" stroke="#3D4041" fill="#D8D8D8" x="5.5" y="18.5" width="9" height="1" rx="0.5"></rect>
                <rect id="Rectangle" stroke="#3D4041" stroke-width="2" x="7" y="1" width="6" height="11" rx="3"></rect>
                <path d="M17,9 C17,12.8659932 13.8659932,16 10,16 C6.13400675,16 3,12.8659932 3,9" id="Rectangle-Copy" stroke="#3D4041" stroke-width="2" stroke-linecap="round"></path>
                <rect id="Rectangle-2" stroke="#3D4041" fill="#D8D8D8" x="9.5" y="16.5" width="1" height="3"></rect>
                <rect id="Rectangle-13" fill="#3D4041" x="2" y="7" width="2" height="3" rx="1"></rect>
                <rect id="Rectangle-13-Copy" fill="#3D4041" x="16" y="7" width="2" height="3" rx="1"></rect>
            </g>
        </g>
        <g id="分组" transform="translate(104.000000, 265.721825)">
            <ellipse id="Oval" fill="url(#linearGradient-4)" opacity="0.600000024" cx="114" cy="128" rx="114" ry="39"></ellipse>
            <path d="M4,43 C7.83952155,35.9138936 10.9516131,32.3708404 13.3362748,32.3708404 C16.9132672,32.3708404 22.5862711,37.6854202 26.6746017,37.6854202 C30.7629322,37.6854202 36.4826373,29 41.5002419,29 C44.8453116,29 50.3452309,33.6666667 58,43 L4,43 Z" id="Path-2" fill="url(#linearGradient-5)"></path>
            <path d="M165,57 C169.123931,49.9138936 172.466547,46.3708404 175.027851,46.3708404 C178.869805,46.3708404 184.963032,51.6854202 189.354202,51.6854202 C193.745372,51.6854202 199.888759,43 205.278038,43 C208.87089,43 214.778211,47.6666667 223,57 L165,57 Z" id="Path-2-Copy" fill="url(#linearGradient-6)"></path>
            <path d="M94.5774693,77.0016547 L135.740358,77.0280815 L143.341988,93.3076346 C144.276655,95.3093068 143.411677,97.6896805 141.410005,98.6243481 C140.880126,98.8717717 140.302439,99 139.717639,99 L88.2120167,99 C86.0028777,99 84.2120167,97.209139 84.2120167,95 C84.2120167,94.4289965 84.3342679,93.8646107 84.5705508,93.3447882 L90.9334354,79.3464421 C91.5829008,77.9176183 93.0079656,77.0006471 94.5774693,77.0016547 Z" id="Rectangle-Copy" fill="url(#linearGradient-7)"></path>
            <path d="M67,1.15550469e-17 L133.259394,2.02962647e-16 L160.679369,0.0871451083 C162.85178,0.0940493829 164.621547,1.83362517 164.665825,4.00559637 L165,20.3976711 L165,74 C165,76.209139 163.209139,78 161,78 L67,78 C64.790861,78 63,76.209139 63,74 L63,4 C63,1.790861 64.790861,4.05812251e-16 67,0 Z" id="Rectangle" fill="url(#linearGradient-7)"></path>
            <path d="M131.790625,41.55625 L118.2625,55.103125 L118.2625,47.359375 C118.2625,47.359375 104.8375,45.86875 97,57.04375 C97,57.04375 99.465625,35.74375 118.2625,35.74375 L118.2625,28 L131.790625,41.55625 Z" id="Shape" fill="#EAEAEB" fill-rule="nonzero"></path>
        </g>
        <g id="分组" transform="translate(215.000000, 210.000000) rotate(-180.000000) translate(-215.000000, -210.000000) translate(205.000000, 200.000000)">
            <rect id="Rectangle-7-Copy-25" x="0" y="0" width="20" height="20"></rect>
            <g id="Group-2-Copy" transform="translate(1.904762, 2.000000)">
                <ellipse id="Oval" stroke="#21C194" stroke-linecap="round" cx="8.0952381" cy="8" rx="8.0952381" ry="8"></ellipse>
                <rect id="Rectangle-2" fill="#21C194" x="6.07142857" y="3" width="4.04761905" height="1" rx="0.5"></rect>
                <path d="M6.57142857,5.5 L6.57142857,8.5 L4.11442026,8.5 L8.11572119,13.2243828 L12.0821293,8.5 L9.61904762,8.5 L9.61904762,5.5 L6.57142857,5.5 Z" id="Combined-Shape" stroke="#21C194"></path>
            </g>
        </g>
        <g id="降级_灰色" transform="translate(215.000000, 178.000000) rotate(180.000000) translate(-215.000000, -178.000000) translate(205.000000, 168.000000)">
            <rect id="Rectangle-9-Copy" x="0" y="0" width="20" height="20"></rect>
            <g id="051操作_排序" stroke-width="1" fill-rule="evenodd" fill="#FAAD14" opacity="0">
                <rect id="Rectangle-path" fill-rule="nonzero" x="0" y="0" width="20" height="20"></rect>
            </g>
            <circle id="Oval" stroke="#979797" stroke-width="1" cx="10" cy="10" r="8"></circle>
            <rect id="Rectangle-2" fill="#979797" fill-rule="evenodd" x="8" y="5" width="4" height="1" rx="0.5"></rect>
            <path d="M8.5,7.5 L8.5,10.5 L6.07051515,10.5 L10.0202142,15.2189732 L13.9354705,10.5 L11.5,10.5 L11.5,7.5 L8.5,7.5 Z" id="Combined-Shape" stroke="#979797" stroke-width="1"></path>
        </g>
        <g id="分组-4-copy" transform="translate(130.000000, 168.000000)">
            <rect id="Rectangle-7-Copy-31" x="0" y="0" width="20" height="20"></rect>
            <g id="Group-Copy-3" transform="translate(2.000000, 2.000000)">
                <circle id="Oval" stroke="#979797" cx="8" cy="8" r="8"></circle>
                <rect id="Rectangle-16" fill="#979797" x="4" y="7.5" width="8" height="1" rx="0.5"></rect>
            </g>
        </g>
    </g>
</svg>