<?xml version="1.0" encoding="UTF-8"?>
<svg width="176px" height="47px" viewBox="0 0 176 47" version="1.1" xmlns="http://www.w3.org/2000/svg" xmlns:xlink="http://www.w3.org/1999/xlink">
    <!-- Generator: Sketch 55.1 (78136) - https://sketchapp.com -->
    <title>Untitled 2</title>
    <desc>Created with Sketch.</desc>
    <defs>
        <path d="M0.294413446,20.823 C0.278,28.846 4.9685,36.133 12.278,39.441 L12.278,39.441 C13.127,39.8235 14.1255,39.4455 14.5085,38.596 L14.5085,38.596 C14.891,37.747 14.513,36.748 13.664,36.3655 L13.664,36.3655 L13.664,36.3675 C7.6335,33.6505 3.666,27.6065 3.666,20.8245 L3.666,20.8245 C3.666,11.427 11.219,3.8135 20.5255,3.8115 L20.5255,3.8115 C21.4565,3.8115 22.2115,3.0565 22.2115,2.1255 L22.2115,2.1255 C22.2115,1.1945 21.4565,0.4395 20.5255,0.4395 L20.5255,0.4395 C9.3495,0.4395 0.294413446,9.5695 0.294413446,20.823 M26.508,3.063 C26.139,3.9185 26.5325,4.9105 27.3875,5.2805 L27.3875,5.2805 L27.3875,5.2815 C33.418,7.996 37.3845,14.042 37.3845,20.823 L37.3845,20.823 C37.3845,30.222 29.832,37.834 20.5255,37.834 L20.5255,37.834 C19.5945,37.834 18.839,38.589 18.839,39.52 L18.839,39.52 C18.839,40.451 19.5945,41.206 20.5255,41.206 L20.5255,41.206 C31.7015,41.206 40.7570814,32.078 40.7570814,20.825 L40.7570814,20.825 C40.773,12.801 36.083,5.514 28.773,2.2065 L28.773,2.2065 C28.757,2.199 28.741,2.192 28.725,2.185 L28.725,2.185 C28.507,2.0905 28.28,2.046 28.057,2.046 L28.057,2.046 C27.4045,2.046 26.7835,2.427 26.508,3.063" id="path-1"></path>
        <linearGradient x1="-0.000879477218%" y1="50.0000938%" x2="99.999529%" y2="50.0000938%" id="linearGradient-3">
            <stop stop-color="#FF931D" offset="0%"></stop>
            <stop stop-color="#FDD834" offset="100%"></stop>
        </linearGradient>
        <path d="M0.294413446,20.823 C0.278,28.846 4.9685,36.133 12.278,39.441 L12.278,39.441 C13.127,39.8235 14.1255,39.4455 14.5085,38.596 L14.5085,38.596 C14.891,37.747 14.513,36.748 13.664,36.3655 L13.664,36.3655 L13.664,36.3675 C7.633,33.6505 3.666,27.6065 3.666,20.8245 L3.666,20.8245 C3.666,11.427 11.219,3.8135 20.5255,3.8115 L20.5255,3.8115 C21.4565,3.8115 22.2115,3.0565 22.2115,2.1255 L22.2115,2.1255 C22.2115,1.1945 21.4565,0.4395 20.5255,0.4395 L20.5255,0.4395 C9.3495,0.4395 0.294413446,9.5695 0.294413446,20.823 M26.508,3.063 C26.139,3.9185 26.5325,4.9105 27.3875,5.2805 L27.3875,5.2805 L27.3875,5.2815 C33.418,7.996 37.3845,14.042 37.3845,20.823 L37.3845,20.823 C37.3845,30.222 29.832,37.834 20.5255,37.834 L20.5255,37.834 C19.5945,37.834 18.839,38.589 18.839,39.52 L18.839,39.52 C18.839,40.451 19.5945,41.206 20.5255,41.206 L20.5255,41.206 C31.7015,41.206 40.7570814,32.078 40.7570814,20.825 L40.7570814,20.825 C40.773,12.801 36.083,5.514 28.773,2.2065 L28.773,2.2065 C28.757,2.199 28.741,2.192 28.725,2.185 L28.725,2.185 C28.507,2.091 28.2805,2.046 28.057,2.046 L28.057,2.046 C27.4045,2.046 26.7835,2.427 26.508,3.063" id="path-4"></path>
        <linearGradient x1="99.2576819%" y1="21.342855%" x2="0.742318068%" y2="93.4482313%" id="linearGradient-6">
            <stop stop-color="#05BDB3" offset="0%"></stop>
            <stop stop-color="#0AD499" offset="100%"></stop>
        </linearGradient>
        <path d="M8.4915,1.4255 L0.2475,19.429 C0.146,19.6495 0.094,19.89 0.094,20.133 L0.094,20.133 C0.095,21.0645 0.8505,21.8185 1.7815,21.8175 L1.7815,21.8175 L15.549,21.8175 L7.14,38.7695 C6.726,39.604 7.0665,40.616 7.901,41.0295 L7.901,41.0295 C8.735,41.4435 9.7465,41.1025 10.161,40.2685 L10.161,40.2685 L19.777,20.8795 C19.893,20.6475 19.9525004,20.391 19.9525004,20.132 L19.9525004,20.132 C19.953,19.2005 19.198,18.4455 18.267,18.4455 L18.267,18.4455 L4.4085,18.4455 L11.557,2.829 C11.5695,2.8025 11.582,2.776 11.593,2.75 L11.593,2.75 C11.9585,1.8935 11.5605,0.903 10.7045,0.537 L10.7045,0.537 C10.4885,0.445 10.2645,0.4015 10.0435,0.4015 L10.0435,0.4015 C9.3885,0.4015 8.765,0.7855 8.4915,1.4255" id="path-7"></path>
        <linearGradient x1="-0.000327315755%" y1="50.0001623%" x2="100.001504%" y2="50.0001623%" id="linearGradient-9">
            <stop stop-color="#FF931D" offset="0%"></stop>
            <stop stop-color="#FDD834" offset="100%"></stop>
        </linearGradient>
        <path d="M8.4915,1.4255 L0.2475,19.429 C0.146,19.6495 0.094,19.89 0.094,20.133 L0.094,20.133 C0.095,21.0645 0.8505,21.8185 1.7815,21.8175 L1.7815,21.8175 L15.549,21.8175 L7.14,38.7695 C6.726,39.604 7.0665,40.616 7.901,41.0295 L7.901,41.0295 C8.735,41.4435 9.7465,41.1025 10.161,40.2685 L10.161,40.2685 L19.777,20.8795 C19.893,20.6475 19.9525004,20.391 19.9525004,20.132 L19.9525004,20.132 C19.953,19.2005 19.198,18.4455 18.267,18.4455 L18.267,18.4455 L4.4085,18.4455 L11.557,2.829 C11.5695,2.8025 11.582,2.776 11.593,2.75 L11.593,2.75 C11.9585,1.8935 11.5605,0.903 10.7045,0.537 L10.7045,0.537 C10.489,0.445 10.264,0.4015 10.0435,0.4015 L10.0435,0.4015 C9.3885,0.4015 8.765,0.7855 8.4915,1.4255" id="path-10"></path>
        <linearGradient x1="38.1571682%" y1="100%" x2="70.661678%" y2="-5.46603517%" id="linearGradient-12">
            <stop stop-color="#05BDB3" offset="0%"></stop>
            <stop stop-color="#0AD499" offset="100%"></stop>
        </linearGradient>
    </defs>
    <g id="Page-1" stroke="none" stroke-width="1" fill="none" fill-rule="evenodd">
        <g id="画板备份@2x" transform="translate(0.000000, 1.000000)">
            <rect id="矩形" x="0" y="0" width="170" height="45"></rect>
            <g id="编组" transform="translate(0.000000, 1.000000)">
                <g id="Group" transform="translate(0.000000, 0.392500)">
                    <g id="Fill-1-Clipped">
                        <mask id="mask-2" fill="white">
                            <use xlink:href="#path-1"></use>
                        </mask>
                        <g id="path-1"></g>
                        <path d="M0.294413446,20.823 C0.278,28.846 4.9685,36.133 12.278,39.441 L12.278,39.441 C13.127,39.8235 14.1255,39.4455 14.5085,38.596 L14.5085,38.596 C14.891,37.747 14.513,36.748 13.664,36.3655 L13.664,36.3655 L13.664,36.3675 C7.6335,33.6505 3.666,27.6065 3.666,20.8245 L3.666,20.8245 C3.666,11.427 11.219,3.8135 20.5255,3.8115 L20.5255,3.8115 C21.4565,3.8115 22.2115,3.0565 22.2115,2.1255 L22.2115,2.1255 C22.2115,1.1945 21.4565,0.4395 20.5255,0.4395 L20.5255,0.4395 C9.3495,0.4395 0.294413446,9.5695 0.294413446,20.823 M26.508,3.063 C26.139,3.9185 26.5325,4.9105 27.3875,5.2805 L27.3875,5.2805 L27.3875,5.2815 C33.418,7.996 37.3845,14.042 37.3845,20.823 L37.3845,20.823 C37.3845,30.222 29.832,37.834 20.5255,37.834 L20.5255,37.834 C19.5945,37.834 18.839,38.589 18.839,39.52 L18.839,39.52 C18.839,40.451 19.5945,41.206 20.5255,41.206 L20.5255,41.206 C31.7015,41.206 40.7570814,32.078 40.7570814,20.825 L40.7570814,20.825 C40.773,12.801 36.083,5.514 28.773,2.2065 L28.773,2.2065 C28.757,2.199 28.741,2.192 28.725,2.185 L28.725,2.185 C28.507,2.0905 28.28,2.046 28.057,2.046 L28.057,2.046 C27.4045,2.046 26.7835,2.427 26.508,3.063" id="Fill-1" fill="url(#linearGradient-3)" fill-rule="nonzero" mask="url(#mask-2)"></path>
                    </g>
                </g>
                <g id="Group" transform="translate(0.000000, 0.392500)">
                    <g id="Fill-3-Clipped">
                        <mask id="mask-5" fill="white">
                            <use xlink:href="#path-4"></use>
                        </mask>
                        <g id="path-4"></g>
                        <path d="M0.294413446,20.823 C0.278,28.846 4.9685,36.133 12.278,39.441 L12.278,39.441 C13.127,39.8235 14.1255,39.4455 14.5085,38.596 L14.5085,38.596 C14.891,37.747 14.513,36.748 13.664,36.3655 L13.664,36.3655 L13.664,36.3675 C7.633,33.6505 3.666,27.6065 3.666,20.8245 L3.666,20.8245 C3.666,11.427 11.219,3.8135 20.5255,3.8115 L20.5255,3.8115 C21.4565,3.8115 22.2115,3.0565 22.2115,2.1255 L22.2115,2.1255 C22.2115,1.1945 21.4565,0.4395 20.5255,0.4395 L20.5255,0.4395 C9.3495,0.4395 0.294413446,9.5695 0.294413446,20.823 M26.508,3.063 C26.139,3.9185 26.5325,4.9105 27.3875,5.2805 L27.3875,5.2805 L27.3875,5.2815 C33.418,7.996 37.3845,14.042 37.3845,20.823 L37.3845,20.823 C37.3845,30.222 29.832,37.834 20.5255,37.834 L20.5255,37.834 C19.5945,37.834 18.839,38.589 18.839,39.52 L18.839,39.52 C18.839,40.451 19.5945,41.206 20.5255,41.206 L20.5255,41.206 C31.7015,41.206 40.7570814,32.078 40.7570814,20.825 L40.7570814,20.825 C40.773,12.801 36.083,5.514 28.773,2.2065 L28.773,2.2065 C28.757,2.199 28.741,2.192 28.725,2.185 L28.725,2.185 C28.507,2.091 28.2805,2.046 28.057,2.046 L28.057,2.046 C27.4045,2.046 26.7835,2.427 26.508,3.063" id="Fill-3" fill="url(#linearGradient-6)" fill-rule="nonzero" mask="url(#mask-5)"></path>
                    </g>
                </g>
                <g id="Group" transform="translate(12.000000, 0.392500)">
                    <g id="Fill-5-Clipped">
                        <mask id="mask-8" fill="white">
                            <use xlink:href="#path-7"></use>
                        </mask>
                        <g id="path-7"></g>
                        <path d="M8.4915,1.4255 L0.2475,19.429 C0.146,19.6495 0.094,19.89 0.094,20.133 L0.094,20.133 C0.095,21.0645 0.8505,21.8185 1.7815,21.8175 L1.7815,21.8175 L15.549,21.8175 L7.14,38.7695 C6.726,39.604 7.0665,40.616 7.901,41.0295 L7.901,41.0295 C8.735,41.4435 9.7465,41.1025 10.161,40.2685 L10.161,40.2685 L19.777,20.8795 C19.893,20.6475 19.9525004,20.391 19.9525004,20.132 L19.9525004,20.132 C19.953,19.2005 19.198,18.4455 18.267,18.4455 L18.267,18.4455 L4.4085,18.4455 L11.557,2.829 C11.5695,2.8025 11.582,2.776 11.593,2.75 L11.593,2.75 C11.9585,1.8935 11.5605,0.903 10.7045,0.537 L10.7045,0.537 C10.4885,0.445 10.2645,0.4015 10.0435,0.4015 L10.0435,0.4015 C9.3885,0.4015 8.765,0.7855 8.4915,1.4255" id="Fill-5" fill="url(#linearGradient-9)" fill-rule="nonzero" mask="url(#mask-8)"></path>
                    </g>
                </g>
                <g id="Group" transform="translate(12.000000, 0.392500)">
                    <g id="Fill-7-Clipped">
                        <mask id="mask-11" fill="white">
                            <use xlink:href="#path-10"></use>
                        </mask>
                        <g id="path-10"></g>
                        <path d="M8.4915,1.4255 L0.2475,19.429 C0.146,19.6495 0.094,19.89 0.094,20.133 L0.094,20.133 C0.095,21.0645 0.8505,21.8185 1.7815,21.8175 L1.7815,21.8175 L15.549,21.8175 L7.14,38.7695 C6.726,39.604 7.0665,40.616 7.901,41.0295 L7.901,41.0295 C8.735,41.4435 9.7465,41.1025 10.161,40.2685 L10.161,40.2685 L19.777,20.8795 C19.893,20.6475 19.9525004,20.391 19.9525004,20.132 L19.9525004,20.132 C19.953,19.2005 19.198,18.4455 18.267,18.4455 L18.267,18.4455 L4.4085,18.4455 L11.557,2.829 C11.5695,2.8025 11.582,2.776 11.593,2.75 L11.593,2.75 C11.9585,1.8935 11.5605,0.903 10.7045,0.537 L10.7045,0.537 C10.489,0.445 10.264,0.4015 10.0435,0.4015 L10.0435,0.4015 C9.3885,0.4015 8.765,0.7855 8.4915,1.4255" id="Fill-7" fill="url(#linearGradient-12)" fill-rule="nonzero" mask="url(#mask-11)"></path>
                    </g>
                </g>
            </g>
            <text id="融云课堂" stroke="#22C194" fill="#22C194" font-family="PingFangSC-Regular, PingFang SC" font-size="32" font-weight="normal">
                <tspan x="47" y="34">融云课堂</tspan>
            </text>
        </g>
    </g>
</svg>