<?xml version="1.0" encoding="UTF-8"?>
<svg width="168px" height="325px" viewBox="0 0 168 325" version="1.1" xmlns="http://www.w3.org/2000/svg" xmlns:xlink="http://www.w3.org/1999/xlink">
    <!-- Generator: Sketch 52.5 (67469) - http://www.bohemiancoding.com/sketch -->
    <title>切图</title>
    <desc>Created with Sketch.</desc>
    <defs>
        <linearGradient x1="0%" y1="100%" x2="98.836263%" y2="2.49913194%" id="linearGradient-1">
            <stop stop-color="#02B9B7" offset="0%"></stop>
            <stop stop-color="#03DA91" offset="100%"></stop>
        </linearGradient>
    </defs>
    <g id="Page-1" stroke="none" stroke-width="1" fill="none" fill-rule="evenodd">
        <text id="SealClass" font-family="Helvetica" font-size="24" font-weight="normal" letter-spacing="0.6" fill="#21C194">
            <tspan x="56" y="29">SealClass</tspan>
        </text>
        <g id="分组">
            <path d="M15.0570607,11.4238891 C16.0001007,10.8405469 17.1791086,10.9016077 18.0818513,11.3497712 C18.7091599,11.6612199 19.5067974,12.3421059 20.4959508,12.4519386 C21.5337104,12.5675318 25.1500821,12.5302809 27.057765,14.259954 C28.6696573,15.7211899 29.8191691,17.5514791 29.5183933,21.1763425 C29.2176175,24.800822 28.397962,27.5193736 29.0269323,30.9207313 C29.6102047,34.0740054 31.5540305,36.6024619 30.8473736,37.2230551 C29.8145993,38.1301351 26.784408,38.5594811 24.9257466,39.288755 C22.961149,40.0598881 23.2980677,42.4562382 18.9031686,43.8644778 C18.1175788,44.1160178 17.2426703,44.0875995 17.687187,43.1659264 C18.7980633,40.8609756 17.788138,40.1501353 15.2988445,39.288755 C14.1850602,38.9035724 9.16160614,37.5729069 9.01163369,37.0467852 C8.88243305,36.5947813 9.84666037,32.7433399 11.0443628,29.6157958 C12.790441,25.0546661 14.9648338,23.263164 15.0175942,20.3180345 C15.054568,18.2580951 14.2079092,15.1505207 14.111528,14.4078058 C13.9736032,13.3451935 13.9665407,12.0982466 15.0570607,11.4238891" id="Fill-1" fill="url(#linearGradient-1)"></path>
            <path d="M20,0 C8.95418815,0 0,9.11805391 0,20.3660092 C0,27.2359891 3.34032502,33.3110986 8.45784408,37 C8.52018113,36.5005611 8.66092957,35.7408231 8.94125027,34.5463217 C9.35291004,32.7952912 9.88493129,30.9396621 10.4008782,29.4553184 C11.1191265,27.3888949 11.9255876,25.8187164 12.5736577,24.5571441 C13.4346147,22.88077 14.0572011,21.6695009 14.0811166,20.1811649 C14.10464,18.7443298 13.691412,16.6363862 13.4444161,15.37681 C13.340129,14.8434364 13.264462,14.4581778 13.2346657,14.2042664 C13.1358673,13.3670774 12.8743654,11.1433566 14.6566561,9.92929282 C15.2800267,9.50451024 16.0147413,9.280142 16.7819967,9.280142 C17.4649599,9.280142 18.1483151,9.45660243 18.7587478,9.79036017 C18.9732029,9.90733507 19.1833454,10.0494616 19.386823,10.1871965 C19.7965225,10.4638641 20.220336,10.7505125 20.6084724,10.7980211 C20.7225609,10.8119942 20.9083959,10.8255681 21.1232431,10.8411381 C22.5926725,10.947733 25.6503244,11.1693066 27.5055378,13.0221412 C28.5139082,14.0298021 29.1882461,15.0446492 29.6269578,16.2151967 C30.1507459,17.6133063 30.3338365,19.2397764 30.1872072,21.1880274 C30.1017388,22.3242409 29.9743203,23.3622435 29.8516065,24.3655129 C29.5665811,26.6906386 29.3207614,28.698375 29.7100739,31.0155161 C29.9476604,32.4303934 30.4628232,33.7574397 30.8764433,34.8237877 C31.1355929,35.490904 31.3594574,36.0673946 31.4829553,36.5712251 C31.5178484,36.7149485 31.54294,36.8534819 31.5601905,36.9872246 C36.6675161,33.2971255 40,27.2280045 40,20.3660092 C40,9.11805391 31.0458119,0 20,0" id="Fill-3" fill="url(#linearGradient-1)"></path>
            <path d="M23.9941897,16.9125805 C24.0664695,17.4628187 23.4559982,17.9479399 22.6306409,17.9961264 C21.805772,18.044313 21.0780902,17.6373321 21.0058104,17.0874195 C20.9335306,16.5371813 21.5440019,16.0520601 22.3688708,16.0038736 C23.194228,15.955687 23.9219099,16.3626679 23.9941897,16.9125805" id="Fill-5" fill="#FFFFFF"></path>
        </g>
        <g id="免提" transform="translate(0.000000, 56.000000)">
            <g>
                <rect id="Rectangle-9" x="0" y="0" width="20" height="20"></rect>
                <rect id="Rectangle-3" stroke="#3D4041" fill="#D8D8D8" x="5.5" y="18.5" width="9" height="1" rx="0.5"></rect>
                <rect id="Rectangle" stroke="#3D4041" stroke-width="2" x="7" y="1" width="6" height="11" rx="3"></rect>
                <path d="M17,9 C17,12.8659932 13.8659932,16 10,16 C6.13400675,16 3,12.8659932 3,9" id="Rectangle-Copy" stroke="#3D4041" stroke-width="2" stroke-linecap="round"></path>
                <rect id="Rectangle-2" stroke="#3D4041" fill="#D8D8D8" x="9.5" y="16.5" width="1" height="3"></rect>
                <rect id="Rectangle-13" fill="#3D4041" x="2" y="7" width="2" height="3" rx="1"></rect>
                <rect id="Rectangle-13-Copy" fill="#3D4041" x="16" y="7" width="2" height="3" rx="1"></rect>
            </g>
        </g>
        <g id="静音" transform="translate(64.000000, 56.000000)">
            <g>
                <rect id="Rectangle-9-Copy-2" x="0" y="0" width="20" height="20"></rect>
                <path d="M14.7862251,16.4109096 C16.7371725,14.9520272 18,12.6234882 18,10 C18,7.37676232 16.7374137,5.04841747 14.7867839,3.58950832" id="Oval-4" stroke="#3D4041" stroke-width="2" stroke-linecap="round"></path>
                <path d="M12.6265164,14.2553906 C14.0509733,13.3743151 15,11.7979861 15,10 C15,8.20113651 14.0500468,6.62414648 12.6244306,5.74332001" id="Oval-4-Copy" stroke="#3D4041" stroke-width="2" stroke-linecap="round"></path>
                <path d="M2,6 L2,14 L5.32475972,14 L10,17.8730249 L10,2.14595522 L5.41174839,6 L2,6 Z" id="Rectangle-4" stroke="#3D4041" stroke-width="2"></path>
            </g>
        </g>
        <g id="摄像头" transform="translate(30.000000, 56.000000)">
            <g>
                <rect id="Rectangle-9-Copy" x="0" y="0" width="20" height="20"></rect>
                <circle id="Oval-3" stroke="#3D4041" stroke-width="2" cx="10" cy="10" r="3"></circle>
                <circle id="Oval-2" stroke="#3D4041" stroke-width="2" cx="10" cy="10" r="7"></circle>
                <circle id="Oval" stroke="#3D4041" stroke-width="2" cx="10" cy="2" r="1"></circle>
                <path d="M8.40491783,17.1467182 L5.37227483,19 L14.6277252,19 L11.3549979,17 L8.92636784,17 C8.74236308,17 8.56192574,17.0507689 8.40491783,17.1467182 Z" id="Path-2" stroke="#3D4041" stroke-width="2"></path>
            </g>
        </g>
        <g id="分组-9" transform="translate(-0.000000, 88.000000)">
            <circle id="椭圆形" fill="#F44436" cx="18" cy="18" r="18"></circle>
            <g id="挂断" transform="translate(9.000000, 15.000000)" fill="#FFFFFF" fill-rule="nonzero">
                <path d="M1.5270286,6 C1.51224189,5.99546315 1.49769627,5.98847157 1.48260821,5.98674011 C1.09843516,5.94218251 0.79430319,5.74753615 0.567238878,5.40753512 C0.404123044,5.16329021 0.289726991,4.89158308 0.20440208,4.60668181 C0.128057682,4.3517194 0.067524611,4.09108044 0,3.83294004 L0,3.58231723 C0.0338527134,3.45340045 0.056796214,3.31955231 0.103667656,3.19653124 C0.219650869,2.89223329 0.423189053,2.65907846 0.648344755,2.44740245 C0.954887604,2.15921361 1.29823649,1.92947786 1.64479987,1.70484881 C2.21418845,1.33582946 2.79854455,1.0015269 3.42703976,0.765128325 C4.30827511,0.433609246 5.2190035,0.258118484 6.14214791,0.1487299 C6.85203027,0.0646337276 7.56446414,0.0227281029 8.27834453,0.00924904478 C8.29823426,0.00887645293 8.31802353,0.00319990649 8.33783289,0 L9.63512512,0 C9.65943478,0.0034629125 9.68364399,0.00854769541 9.70805411,0.0101695658 C10.3098288,0.0505190716 10.9124473,0.0794716501 11.5131973,0.133365966 C12.2513271,0.199599646 12.981501,0.330795812 13.7022725,0.518012259 C14.7152421,0.781127857 15.6864232,1.14817467 16.5315155,1.84323381 C16.8549345,2.10922055 17.1938232,2.35267645 17.4781057,2.67106715 C17.6742304,2.89074292 17.8454227,3.12979347 17.9384825,3.42429445 C17.963877,3.50459895 17.9797486,3.58851979 18,3.670753 L18,3.9213539 C17.9548564,4.10804433 17.9118825,4.2954142 17.8640467,4.48127178 C17.7844878,4.79026001 17.7083041,5.10089203 17.5640333,5.38436868 C17.4124696,5.68222299 17.1858071,5.87268317 16.8791236,5.94200717 C16.76306,5.96826394 16.644465,5.98106357 16.5270353,5.99997808 L16.270277,5.99997808 C16.2437574,5.99605491 16.2173181,5.99083862 16.1906779,5.98842774 C16.0538607,5.97615412 15.9163605,5.97038991 15.7802866,5.95182607 C14.9716387,5.84136354 14.1875014,5.61682216 13.4159207,5.33672075 C13.0139675,5.19081817 12.7593589,4.88750648 12.6657968,4.43932232 C12.62216,4.23040788 12.6012456,4.01303341 12.5938322,3.79855201 C12.5795477,3.38512847 12.4127151,3.08021683 12.0825859,2.88519788 C11.9647945,2.81558895 11.8385852,2.75829747 11.7106882,2.71468231 C11.2857915,2.569766 10.8455455,2.52878089 10.4039936,2.52356461 C9.598078,2.51403064 8.79202179,2.51677029 7.98604594,2.51635386 C7.5332433,2.51613469 7.08114383,2.53217806 6.63466973,2.62495343 C6.35930754,2.68215723 6.09182088,2.76550822 5.85420899,2.93589228 C5.61981159,3.10399696 5.47108065,3.33533267 5.43682613,3.64217301 C5.41888519,3.8027601 5.41988972,3.96575808 5.4057861,4.12698076 C5.35493671,4.70822405 5.09992633,5.1242119 4.5876956,5.33884672 C3.82726522,5.65752234 3.03876822,5.84535246 2.23291292,5.95559582 C2.11046052,5.97234053 1.98756613,5.98527166 1.86487265,5.99997808 L1.5270286,6 Z" id="Shape"></path>
            </g>
        </g>
        <g id="笑脸" transform="translate(0.000000, 136.000000)">
            <g>
                <rect id="Rectangle-path" fill="#FAAD14" fill-rule="nonzero" opacity="0" x="0" y="0" width="21" height="20"></rect>
                <path d="M13.8295525,9.0912721 C13.0511625,9.09693392 12.4152047,8.50079807 12.4087943,7.75947771 L12.4218459,7.70753773 C12.4218459,6.95974918 13.0583584,6.35354678 13.8435364,6.35354678 C14.6287143,6.35354678 15.2652269,6.95974918 15.2652269,7.70753773 L15.2521753,7.75947771 C15.2490982,8.11579399 15.0974529,8.45633733 14.8306293,8.70612538 C14.5638057,8.95591342 14.2036822,9.0944646 13.8295525,9.0912721 Z M7.14714108,9.0912721 C6.36875101,9.09693392 5.7327933,8.50079807 5.72638284,7.75947771 L5.73943444,7.70753773 C5.73943444,6.95974918 6.37594696,6.35354678 7.16112493,6.35354678 C7.9463029,6.35354678 8.58281541,6.95974918 8.58281541,7.70753773 L8.56976383,7.75947771 C8.56668674,8.11579399 8.41504144,8.45633733 8.14821785,8.70612538 C7.88139426,8.95591342 7.52127081,9.0944646 7.14714108,9.0912721 Z" id="Shape" fill="#999999" fill-rule="nonzero"></path>
                <path d="M10.497987,18.4999999 C12.8769521,18.5002963 15.1572429,17.6010825 16.836244,16.0024596 C18.5104466,14.4084056 19.4496855,12.2496726 19.45,10.0003761 C19.4502184,5.3117568 15.4489782,1.50048805 10.5009294,1.5 C5.55287675,1.49951194 1.55080143,5.30999729 1.55000012,9.9986206 C1.54919881,14.6872308 5.54995016,18.4989431 10.497987,18.4999999 Z" id="Path" stroke="#979797"></path>
                <path d="M6.3,12 C7.48650513,13.6191406 8.93933411,14.4287109 10.6584869,14.4287109 C12.3776398,14.4287109 13.8304687,13.6633708 15.0169739,12.1326904" id="Path" stroke="#979797" stroke-linecap="round"></path>
            </g>
        </g>
        <g id="图片" transform="translate(30.000000, 136.000000)">
            <g id="符号-图片" fill-rule="evenodd">
                <rect id="Rectangle-path" fill="#666666" fill-rule="nonzero" opacity="0" x="0" y="0" width="21" height="20"></rect>
                <path d="M18.6,2.5 L2.4,2.5 C1.93226156,2.5 1.55,2.87754229 1.55,3.33333333 L1.55,16.6666667 C1.55,17.1224577 1.93226156,17.5 2.4,17.5 L18.6,17.5 C19.0677384,17.5 19.45,17.1224577 19.45,16.6666667 L19.45,3.33333333 C19.45,2.87754229 19.0677384,2.5 18.6,2.5 Z" id="Shape" stroke="#999999" fill-rule="nonzero"></path>
                <ellipse id="Combined-Shape" stroke="#979797" cx="6.825" cy="7.5" rx="1.575" ry="1.5"></ellipse>
            </g>
            <path d="M4.37893066,14.2171631 L6.50627957,11.9271829 C6.88217139,11.522555 7.51490769,11.4992597 7.91953564,11.8751516 C7.94371797,11.8976165 7.96677322,11.9212649 7.98861673,11.94601 L9.25469342,13.3802659 C9.62018733,13.7943101 10.2521279,13.833668 10.6661721,13.4681741 C10.6936217,13.4439432 10.7197197,13.4182231 10.7443483,13.3911299 L13.5513169,10.3032672 C13.9228108,9.89459778 14.5552582,9.86446108 14.9639276,10.235955 C15.041011,10.3060264 15.1066722,10.3877119 15.1585355,10.4780559 L16.9681641,13.6303711" id="Path-26" stroke="#979797" stroke-linecap="round"></path>
        </g>
        <g id="文件夹" transform="translate(60.000000, 136.000000)">
            <g stroke-width="1">
                <rect id="Rectangle-path" fill="#666666" fill-rule="nonzero" opacity="0" x="0" y="0" width="21" height="20"></rect>
                <path d="M18.8087486,4.78571429 L10.3023385,4.78571429 L8.00742109,2.63515775 C7.91475646,2.54832215 7.79252184,2.5 7.6655291,2.5 C7.22769602,2.5 7.22769602,2.5 6.78986294,2.5 C6.35202986,2.5 6.35202986,2.5 5.91419678,2.5 L2.1,2.5 C1.85618566,2.5 1.55,2.82851858 1.55,3.14285714 L1.55,16.8571429 C1.55,17.1714814 1.85618566,17.5 2.1,17.5 L18.9,17.5 C19.1438143,17.5 19.45,17.1714814 19.45,16.8571429 L19.45,5.42857143 C19.45,5.27509721 19.1332937,4.92534085 18.8087486,4.78571429 Z" id="Shape" stroke="#999999" fill-rule="nonzero"></path>
            </g>
            <rect id="Rectangle" fill="#999999" x="3.15" y="7" width="16.8" height="1" rx="0.5"></rect>
        </g>
        <g id="转让" transform="translate(-0.000000, 168.000000)">
            <rect id="矩形" fill="#000000" opacity="0" x="0" y="0" width="20" height="20"></rect>
            <path d="M10,1.25 C5.18375,1.25 1.25,5.18375 1.25,10 C1.25,14.81625 5.18375,18.75 10,18.75 C14.8175,18.75 18.75,14.81625 18.75,10 C18.75,5.18375 14.83625,1.25 10,1.25 Z M10,17.89125 C5.6575,17.89125 2.11,14.365 2.11,10 C2.11,5.635 5.6575,2.11 10,2.11 C14.34375,2.11 17.89125,5.6575 17.89125,10 C17.8884919,14.3570741 14.3570741,17.8884919 10,17.89125 Z M14.3321432,11.9663705 L6.35449219,11.9663705 L8.32495117,14.0310059 C8.47672985,14.1428431 8.66936251,14.5202773 8.48291016,14.80146 C8.32495117,15.0396729 7.68555987,14.7089228 7.55859375,14.5822754 C6.01617709,12.9800732 5.23805606,12.169711 5.22423066,12.1511889 C5.08159902,12.0250683 5.00057387,11.8500341 5,11.6667957 C5,11.2983669 5.30977531,11 5.69343008,11 L14.4902712,11 C14.8726298,11 15,11.1160305 15,11.4844593 C15,11.7284678 14.7773811,11.8891049 14.3321432,11.9663705 Z M5.67988655,9 C5.29839064,8.99324747 5.04315326,8.88429071 5.04882813,8.51477051 C5.04882813,8.13993332 5.30433698,7.99060059 5.67988655,7.99060059 L13.4908447,7.99060059 L11.4464111,6.01062012 C11.1788251,5.74289474 11.0290448,5.4675668 11.2966309,5.19984142 C11.4222795,5.07221793 11.4881486,5 11.6702204,5 C11.8522921,5 12.026421,5.07221793 12.1520696,5.19984142 L14.7249024,7.76205087 C14.7376329,7.77438104 14.741452,7.79041026 14.7529095,7.80520647 C14.9084032,7.93373749 14.9985361,8.12138437 14.999881,8.31937458 C15.0032857,8.49704654 14.9334907,8.66871591 14.8059243,8.79643573 C14.6783578,8.92415554 14.5035252,8.99740768 14.3200727,9 L5.67988655,9 Z" id="形状" fill="#979797" fill-rule="nonzero"></path>
        </g>
        <g id="主讲_hover" transform="translate(26.000000, 200.000000)">
            <rect id="Rectangle-9-Copy" x="0" y="0" width="20" height="20"></rect>
            <g id="Group" stroke-width="1" fill-rule="evenodd">
                <rect id="Rectangle-30" x="0" y="0" width="20" height="20"></rect>
                <g id="主持课堂" transform="translate(0.000000, 3.000000)">
                    <rect id="Rectangle-9-Copy" fill="#21C194" transform="translate(16.998481, 7.161660) rotate(-45.000000) translate(-16.998481, -7.161660) " x="16.4984814" y="4.8353804" width="1" height="4.65255892"></rect>
                    <circle id="Oval-2" stroke="#21C194" cx="9" cy="4" r="3.5"></circle>
                    <circle id="Oval-4" fill="#21C194" cx="15.5" cy="5.5" r="1.5"></circle>
                    <polygon id="Combined-Shape" fill="#21C194" points="18 8 18.5448456 8 19 8.52235631 19 16 18 16"></polygon>
                    <path d="M2.5,15.5 L15.5,15.5 L15.5,13.5 C15.5,11.290861 13.709139,9.5 11.5,9.5 L6.5,9.5 C4.290861,9.5 2.5,11.290861 2.5,13.5 L2.5,15.5 Z" id="Rectangle-56" stroke="#21C194"></path>
                    <rect id="Rectangle-57" fill="#21C194" x="0" y="15" width="20" height="1"></rect>
                </g>
            </g>
        </g>
        <g id="免提_灰色" transform="translate(52.000000, 168.000000)">
            <g id="免提">
                <rect id="Rectangle-9" x="0" y="0" width="20" height="20"></rect>
                <rect id="Rectangle-3" stroke="#979797" x="5.5" y="18.5" width="9" height="1" rx="0.5"></rect>
                <rect id="Rectangle" stroke="#979797" x="6.5" y="2.5" width="7" height="11" rx="3.5"></rect>
                <path d="M15.9632568,9 C15.9632568,12.8659932 13.8659932,16 10,16 C6.13400675,16 4.05749512,12.8659932 4.05749512,9" id="Rectangle-Copy" stroke="#979797" stroke-linecap="round"></path>
                <rect id="Rectangle-2" stroke="#979797" stroke-width="1.4" fill="#D8D8D8" x="10.2" y="16.7" width="1" height="1.6"></rect>
            </g>
        </g>
        <g id="摄像头_灰色" transform="translate(78.000000, 168.000000)">
            <g id="Group-3-Copy">
                <g id="摄像头-线性" fill-rule="nonzero">
                    <rect id="Rectangle-path" fill="#FFFFFF" opacity="0" x="0" y="0" width="20" height="20"></rect>
                    <path d="M9.98000355,6.98638223 C8.51048948,6.98638223 7.3193065,8.17756521 7.3193065,9.64707928 C7.3193065,11.1165981 8.51049427,12.3077963 9.98000355,12.3077963 C11.4495302,12.3077963 12.6407206,11.1166007 12.6407206,9.64707928 C12.6407206,8.17756261 11.449535,6.98638223 9.98000355,6.98638223 Z M9.98000355,12.2542306 C8.54031501,12.2542306 7.37287219,11.0866578 7.37287219,9.64709926 C7.37287219,8.20705712 8.54009907,7.03996789 9.98000355,7.03996789 C11.4199242,7.03996789 12.5871549,8.2070533 12.5871549,9.64709926 C12.5871549,11.0866616 11.4197083,12.2542306 9.98000355,12.2542306 Z M6.57468964,18.226831 C6.59705042,18.2285699 6.62000784,18.2302604 6.64355334,18.231898 C7.24253091,18.2735574 7.93507256,18.2814462 9.95262215,18.2814462 C11.9701618,18.2814462 12.6627037,18.2735574 13.261681,18.231898 C13.2852285,18.2302603 13.3081879,18.2285696 13.3305506,18.2268306 C12.9822126,17.8303905 12.4886762,17.2587173 11.9258264,16.6021724 L11.449869,16.0469845 L12.1399257,15.8049294 C14.7327562,14.8954275 16.5038014,12.4396414 16.5038014,9.64707928 C16.5038014,6.52779834 14.2983305,3.86221262 11.2788394,3.25255685 L10.8360558,3.16315584 L10.8801878,2.71359807 C10.8832563,2.68234031 10.8847911,2.65234846 10.8847911,2.62330139 C10.8847911,2.12367575 10.4796612,1.71855381 9.98002355,1.71855381 C9.48040389,1.71855381 9.07527598,2.12367774 9.07527598,2.62330139 C9.07527598,2.65235358 9.07681135,2.68235968 9.07987721,2.71357696 L9.12403038,3.16315418 L8.68122539,3.25255732 C5.66175448,3.862194 3.45626566,6.52780023 3.45626566,9.64707928 C3.45626566,12.4245821 5.20836015,14.8700197 7.78114352,15.7910075 L8.46487537,16.0357653 L7.99225601,16.5871513 C7.42550332,17.2483589 6.9262991,17.8266701 6.57468964,18.226831 Z M9.83120033,2.6216345 C9.83123132,2.6181691 9.8312458,2.61660129 9.83125671,2.61580468 L9.83111255,2.62163268 L9.83120033,2.6216345 Z M9.83125671,2.61580468 C9.8312656,2.61515562 9.83127211,2.61501855 9.83128324,2.61478419 L9.83127106,2.61522458 L9.83125671,2.61580468 Z M10.1287812,2.61818595 L10.1288113,2.61818512 L10.1287526,2.61611524 L10.1287265,2.61520061 C10.1287548,2.61617765 10.1287658,2.61655815 10.1287812,2.61818595 Z M9.12882166,2.62330141 C9.12882166,2.15307563 9.51004744,1.77211951 9.98000355,1.77211951 C10.4499597,1.77211951 10.8311854,2.15307563 10.8311854,2.62330141 C10.8310713,2.63648425 10.8310713,2.63648425 10.8309064,2.6422358 C10.8308952,2.64263971 10.8308952,2.64263971 10.8308866,2.64294964 C10.8308643,2.64379347 10.8308643,2.64379347 10.8308986,2.64231837 L10.8202574,3.15662986 L10.3064563,3.1313725 C10.1972843,3.12600583 10.0884705,3.12330141 9.98000355,3.12330141 C9.87153658,3.12330141 9.76272284,3.12600583 9.65355083,3.1313725 L9.14328237,3.1564562 L9.12919175,2.64576594 C9.12918573,2.64555031 9.12918573,2.64555031 9.12916835,2.64494633 C9.12913426,2.64376907 9.12913426,2.64376907 9.12908082,2.6418187 C9.12890646,2.6350318 9.12890646,2.6350318 9.12882166,2.62330141 Z M9.23374958,18.2178662 C8.6789125,18.2042679 8.28521433,18.1757047 8.02454701,18.1349465 C7.55620556,18.0617162 7.30802116,17.9438106 7.3336384,17.5155697 L7.33553249,17.4963598 L7.35424719,17.3379372 L8.51950458,16.0495694 L8.76546728,16.0696439 L8.90455575,16.0827193 C9.24030992,16.1384042 9.58249089,16.1678742 9.92897613,16.1705321 L9.97079568,16.1708529 C9.97315056,16.1708613 9.97588547,16.1708676 9.98000354,16.1708771 C10.3566806,16.1708771 10.7295191,16.1388611 11.0959303,16.0757437 L11.3670779,16.0290362 L12.5428782,17.3290721 L12.5665755,17.4747251 L12.570101,17.5006611 L12.5713857,17.5140537 C12.6063256,17.9382799 12.3537638,18.0609841 11.8869739,18.1352316 C11.5158724,18.194259 10.8711854,18.2278605 9.87163701,18.2278605 L9.23125104,18.2278605 L9.23374958,18.2178662 Z M9.98000355,16.1173115 C6.40665005,16.1173115 3.50979137,13.2204595 3.50979137,9.64709928 C3.50979137,6.07375241 6.40665669,3.17688709 9.98000355,3.17688709 C13.5533537,3.17688709 16.4502357,6.07375571 16.4502357,9.64709928 C16.4502357,13.2204562 13.5533604,16.1173115 9.98000355,16.1173115 Z" id="Shape" stroke="#979797"></path>
                </g>
            </g>
        </g>
        <g id="降级_灰色" transform="translate(104.000000, 168.000000)">
            <rect id="Rectangle-9-Copy" x="0" y="0" width="20" height="20"></rect>
            <g id="051操作_排序" stroke-width="1" fill-rule="evenodd" fill="#FAAD14" opacity="0">
                <rect id="Rectangle-path" fill-rule="nonzero" x="0" y="0" width="20" height="20"></rect>
            </g>
            <circle id="Oval" stroke="#979797" stroke-width="1" cx="10" cy="10" r="8"></circle>
            <rect id="Rectangle-2" fill="#979797" fill-rule="evenodd" x="8" y="5" width="4" height="1" rx="0.5"></rect>
            <path d="M8.5,7.5 L8.5,10.5 L6.07051515,10.5 L10.0202142,15.2189732 L13.9354705,10.5 L11.5,10.5 L11.5,7.5 L8.5,7.5 Z" id="Combined-Shape" stroke="#979797" stroke-width="1"></path>
        </g>
        <g id="移除参会人员" transform="translate(130.000000, 168.000000)">
            <rect id="Rectangle-9-Copy" x="0" y="0" width="20" height="20"></rect>
            <circle id="Oval" stroke="#D44040" stroke-width="1" cx="10" cy="10" r="8"></circle>
            <rect id="Rectangle-16" fill="#D44040" fill-rule="evenodd" x="6" y="9.5" width="8" height="1" rx="0.5"></rect>
        </g>
        <g id="画板缩略图" transform="translate(-0.000000, 232.000000)">
            <rect id="Rectangle-9-Copy-7" x="0" y="0" width="18.5185185" height="18.5185185"></rect>
            <g id="1" transform="translate(0.925926, 1.925926)" stroke="#3D4041" stroke-width="1.6">
                <path d="M11.962963,10.1166494 L9.10519087,11.5455355 C8.61929528,11.7884833 8.04737139,11.7884833 7.56147579,11.5455355 L4.7037037,10.1166494 L1.0881916,11.9244055 C1.06382148,11.9365905 1.04406087,11.9563511 1.03187581,11.9807213 C1.00077346,12.042926 1.0259869,12.1185663 1.0881916,12.1496686 L8.27701755,15.7440816 C8.31246916,15.7618074 8.35419751,15.7618074 8.38964912,15.7440816 L15.5784751,12.1496686 C15.6028452,12.1374836 15.6226058,12.1177229 15.6347909,12.0933528 C15.6658932,12.0311481 15.6406798,11.9555078 15.5784751,11.9244055 L11.962963,10.1166494 Z" id="Combined-Shape"></path>
                <path d="M12.962963,6.91294571 L9.10519087,8.84183175 C8.61929528,9.08477955 8.04737139,9.08477955 7.56147579,8.84183175 L3.7037037,6.91294571 L1.0881916,8.22070176 C1.06382148,8.23288682 1.04406087,8.25264743 1.03187581,8.27701755 C1.00077346,8.33922225 1.0259869,8.41486256 1.0881916,8.44596491 L8.27701755,12.0403779 C8.31246916,12.0581037 8.35419751,12.0581037 8.38964912,12.0403779 L15.5784751,8.44596491 C15.6028452,8.43377985 15.6226058,8.41401924 15.6347909,8.38964912 C15.6658932,8.32744442 15.6406798,8.25180411 15.5784751,8.22070176 L12.962963,6.91294571 Z" id="Combined-Shape" fill-opacity="0" fill="#FFFFFF"></path>
                <path d="M8.38964912,0.922585084 C8.35419751,0.904859279 8.31246916,0.904859279 8.27701755,0.922585084 L1.0881916,4.51699806 C1.06382148,4.52918312 1.04406087,4.54894373 1.03187581,4.57331384 C1.00077346,4.63551854 1.0259869,4.71115885 1.0881916,4.7422612 L8.27701755,8.33667418 C8.31246916,8.35439998 8.35419751,8.35439998 8.38964912,8.33667418 L15.5784751,4.7422612 C15.6028452,4.73007614 15.6226058,4.71031553 15.6347909,4.68594542 C15.6658932,4.62374072 15.6406798,4.54810041 15.5784751,4.51699806 L8.38964912,0.922585084 Z" id="Polygon" fill-opacity="0" fill="#FFFFFF"></path>
            </g>
        </g>
        <g id="屏幕共享" transform="translate(26.000000, 232.000000)">
            <g id="共享白板-copy">
                <rect id="Rectangle-2" x="0" y="0" width="20" height="20"></rect>
                <rect id="Rectangle-3" stroke="#3D4041" stroke-width="1.6" x="0.8" y="1.8" width="18.4" height="13.4" rx="2"></rect>
                <rect id="Rectangle-5" fill="#3D4041" x="6" y="18" width="8" height="1.6" rx="0.8"></rect>
            </g>
            <path d="M10.4759586,6.09832786 C10.2251978,5.88088752 10.0206939,6.03938319 10.0206939,6.42317849 L10.0206939,7.44619599 L9.97930615,7.44619599 C8.51369446,7.44619599 6.02069385,9.26824125 6,10.8885648 C6,11.018243 6.09738284,11.0549197 6.19111382,10.8885648 C6.66463786,9.97950694 8.65489957,9.50794958 9.66889836,9.50794958 L10.0206939,9.50794958 L10.0206939,10.587292 C10.0206939,10.9095229 10.2422398,11.129583 10.4942179,10.9121426 L12.8119294,8.91064358 C13.0626902,8.69451312 13.0626902,8.33953522 12.8119294,8.12209488 L10.4759586,6.09832786 Z" id="Path" fill="#3D4041"></path>
        </g>
        <g id="共享白板" transform="translate(54.000000, 232.000000)">
            <g>
                <rect id="Rectangle-2" x="0" y="0" width="20" height="20"></rect>
                <rect id="Rectangle-3" stroke="#3D4041" stroke-width="1.6" x="1.8" y="1.8" width="16.4" height="13.4" rx="2"></rect>
                <rect id="Rectangle-5" fill="#3D4041" x="2" y="18" width="16" height="1.6" rx="0.8"></rect>
            </g>
            <rect id="Rectangle-7" fill="#3D4041" x="5" y="10" width="10" height="1.6" rx="0.8"></rect>
            <rect id="Rectangle-7-Copy" fill="#3D4041" x="5" y="6" width="2" height="1.6" rx="0.8"></rect>
            <rect id="Rectangle-7-Copy-2" fill="#3D4041" x="8" y="6" width="7" height="1.6" rx="0.8"></rect>
        </g>
        <g id="分组-2" transform="translate(42.000000, 88.000000)">
            <circle id="椭圆形" fill="#3D4041" opacity="0.699999988" cx="18" cy="18" r="18"></circle>
            <g id="全屏" transform="translate(6.000000, 6.000000)">
                <rect id="矩形" fill="#000000" opacity="0" x="0" y="0" width="24" height="24"></rect>
                <path d="M3.9453125,8.07734375 L3.9453125,3.9453125 L8.0796875,3.9453125 C8.41484375,3.9453125 8.68671875,3.6734375 8.68671875,3.33828125 L8.68671875,2.609375 C8.68671875,2.27421875 8.41484375,2.00234375 8.0796875,2.00234375 L2.46875,2.00234375 C2.2109375,2.00234375 2,2.21328125 2,2.47109375 L2,8.08203125 C2,8.4171875 2.271875,8.6890625 2.60703125,8.6890625 L3.3359375,8.6890625 C3.6734375,8.68671875 3.9453125,8.41484375 3.9453125,8.07734375 Z M15.3734375,3.9453125 L19.5078125,3.9453125 L19.5078125,8.0796875 C19.5078125,8.41484375 19.7796875,8.68671875 20.1148437,8.68671875 L20.84375,8.68671875 C21.1789062,8.68671875 21.4507812,8.41484375 21.4507812,8.0796875 L21.4507812,2.46875 C21.4507812,2.2109375 21.2398437,2 20.9820312,2 L15.3734375,2 C15.0382812,2 14.7664062,2.271875 14.7664062,2.60703125 L14.7664062,3.3359375 C14.7664062,3.67109375 15.0382812,3.9453125 15.3734375,3.9453125 Z M8.0796875,19.5078125 L3.9453125,19.5078125 L3.9453125,15.3734375 C3.9453125,15.0382813 3.6734375,14.7664062 3.33828125,14.7664062 L2.609375,14.7664062 C2.27421875,14.7664062 2.00234375,15.0382813 2.00234375,15.3734375 L2.00234375,20.984375 C2.00234375,21.2421875 2.21328125,21.453125 2.47109375,21.453125 L8.08203125,21.453125 C8.4171875,21.453125 8.6890625,21.18125 8.6890625,20.8460937 L8.6890625,20.1171875 C8.68671875,19.7796875 8.41484375,19.5078125 8.0796875,19.5078125 Z M19.5078125,15.3734375 L19.5078125,19.5078125 L15.3734375,19.5078125 C15.0382812,19.5078125 14.7664062,19.7796875 14.7664062,20.1148437 L14.7664062,20.84375 C14.7664062,21.1789063 15.0382812,21.4507812 15.3734375,21.4507812 L20.984375,21.4507812 C21.2421875,21.4507812 21.453125,21.2398437 21.453125,20.9820312 L21.453125,15.3734375 C21.453125,15.0382813 21.18125,14.7664062 20.8460937,14.7664062 L20.1171875,14.7664062 C19.7796875,14.7664062 19.5078125,15.0382813 19.5078125,15.3734375 Z" id="形状" fill="#FFFFFF" fill-rule="nonzero"></path>
            </g>
        </g>
        <g id="成功" transform="translate(0.000000, 263.000000)">
            <rect id="矩形" fill="#000000" opacity="0" x="0" y="0" width="30" height="30"></rect>
            <path d="M15,28.125 C7.75195313,28.125 1.875,22.2480469 1.875,15 C1.875,7.75195313 7.75195313,1.875 15,1.875 C22.2480469,1.875 28.125,7.75195313 28.125,15 C28.125,22.2480469 22.2480469,28.125 15,28.125 Z M15,4.06347656 C8.95898438,4.06347656 4.06347656,8.95898438 4.06347656,15 C4.06347656,21.0410156 8.95898438,25.9365234 15,25.9365234 C21.0410156,25.9365234 25.9365234,21.0410156 25.9365234,15 C25.9365234,8.95898438 21.0410156,4.06347656 15,4.06347656 Z M14.7333984,20.0947266 C14.3056641,20.5224609 13.6142578,20.5224609 13.1894531,20.0947266 C13.1103516,20.0097656 13.0458984,19.9130859 12.9990234,19.8105469 L8.93554688,15.6240234 C8.5078125,15.1962891 8.5078125,14.5048828 8.93261719,14.0771484 C9.36035156,13.6494141 10.0517578,13.6494141 10.4794922,14.0742187 L10.5,14.0947266 L14.0185547,17.7158203 L20.7363281,10.9980469 C21.1699219,10.5791016 21.8642578,10.5908203 22.2832031,11.0244141 C22.6933594,11.4492187 22.6933594,12.1201172 22.2832031,12.5419922 L14.7333984,20.0947266 Z" id="形状" fill="#21C194" fill-rule="nonzero"></path>
        </g>
        <g id="转让" transform="translate(0.000000, 200.000000)">
            <rect id="矩形" fill="#000000" opacity="0" x="0" y="0" width="20" height="20"></rect>
            <path d="M10,1.25 C5.18375,1.25 1.25,5.18375 1.25,10 C1.25,14.81625 5.18375,18.75 10,18.75 C14.8175,18.75 18.75,14.81625 18.75,10 C18.75,5.18375 14.83625,1.25 10,1.25 Z M10,17.89125 C5.6575,17.89125 2.11,14.365 2.11,10 C2.11,5.635 5.6575,2.11 10,2.11 C14.34375,2.11 17.89125,5.6575 17.89125,10 C17.8884919,14.3570741 14.3570741,17.8884919 10,17.89125 Z M14.3321432,11.9663705 L6.35449219,11.9663705 L8.32495117,14.0310059 C8.47672985,14.1428431 8.66936251,14.5202773 8.48291016,14.80146 C8.32495117,15.0396729 7.68555987,14.7089228 7.55859375,14.5822754 C6.01617709,12.9800732 5.23805606,12.169711 5.22423066,12.1511889 C5.08159902,12.0250683 5.00057387,11.8500341 5,11.6667957 C5,11.2983669 5.30977531,11 5.69343008,11 L14.4902712,11 C14.8726298,11 15,11.1160305 15,11.4844593 C15,11.7284678 14.7773811,11.8891049 14.3321432,11.9663705 Z M5.67988655,9 C5.29839064,8.99324747 5.04315326,8.88429071 5.04882813,8.51477051 C5.04882813,8.13993332 5.30433698,7.99060059 5.67988655,7.99060059 L13.4908447,7.99060059 L11.4464111,6.01062012 C11.1788251,5.74289474 11.0290448,5.4675668 11.2966309,5.19984142 C11.4222795,5.07221793 11.4881486,5 11.6702204,5 C11.8522921,5 12.026421,5.07221793 12.1520696,5.19984142 L14.7249024,7.76205087 C14.7376329,7.77438104 14.741452,7.79041026 14.7529095,7.80520647 C14.9084032,7.93373749 14.9985361,8.12138437 14.999881,8.31937458 C15.0032857,8.49704654 14.9334907,8.66871591 14.8059243,8.79643573 C14.6783578,8.92415554 14.5035252,8.99740768 14.3200727,9 L5.67988655,9 Z" id="形状" fill="#21C194" fill-rule="nonzero"></path>
        </g>
        <g id="Group" transform="translate(26.000000, 168.000000)">
            <rect id="Rectangle-30" x="0" y="0" width="20" height="20"></rect>
            <g id="主持课堂" transform="translate(0.000000, 3.000000)">
                <rect id="Rectangle-9-Copy" fill="#979797" transform="translate(16.998481, 7.161660) rotate(-45.000000) translate(-16.998481, -7.161660) " x="16.4984814" y="4.8353804" width="1" height="4.65255892"></rect>
                <circle id="Oval-2" stroke="#979797" cx="9" cy="4" r="3.5"></circle>
                <circle id="Oval-4" fill="#979797" cx="15.5" cy="5.5" r="1.5"></circle>
                <polygon id="Combined-Shape" fill="#979797" points="18 8 18.5448456 8 19 8.52235631 19 16 18 16"></polygon>
                <path d="M2.5,15.5 L15.5,15.5 L15.5,13.5 C15.5,11.290861 13.709139,9.5 11.5,9.5 L6.5,9.5 C4.290861,9.5 2.5,11.290861 2.5,13.5 L2.5,15.5 Z" id="Rectangle-56" stroke="#979797"></path>
                <rect id="Rectangle-57" fill="#979797" x="0" y="15" width="20" height="1"></rect>
            </g>
        </g>
        <g id="笑脸" transform="translate(0.000000, 305.000000)">
            <g>
                <rect id="Rectangle-path" fill="#FAAD14" fill-rule="nonzero" opacity="0" x="0" y="0" width="21" height="20"></rect>
                <path d="M13.8295525,9.0912721 C13.0511625,9.09693392 12.4152047,8.50079807 12.4087943,7.75947771 L12.4218459,7.70753773 C12.4218459,6.95974918 13.0583584,6.35354678 13.8435364,6.35354678 C14.6287143,6.35354678 15.2652269,6.95974918 15.2652269,7.70753773 L15.2521753,7.75947771 C15.2490982,8.11579399 15.0974529,8.45633733 14.8306293,8.70612538 C14.5638057,8.95591342 14.2036822,9.0944646 13.8295525,9.0912721 Z M7.14714108,9.0912721 C6.36875101,9.09693392 5.7327933,8.50079807 5.72638284,7.75947771 L5.73943444,7.70753773 C5.73943444,6.95974918 6.37594696,6.35354678 7.16112493,6.35354678 C7.9463029,6.35354678 8.58281541,6.95974918 8.58281541,7.70753773 L8.56976383,7.75947771 C8.56668674,8.11579399 8.41504144,8.45633733 8.14821785,8.70612538 C7.88139426,8.95591342 7.52127081,9.0944646 7.14714108,9.0912721 Z" id="Shape" fill="#999999" fill-rule="nonzero"></path>
                <path d="M10.497987,18.4999999 C12.8769521,18.5002963 15.1572429,17.6010825 16.836244,16.0024596 C18.5104466,14.4084056 19.4496855,12.2496726 19.45,10.0003761 C19.4502184,5.3117568 15.4489782,1.50048805 10.5009294,1.5 C5.55287675,1.49951194 1.55080143,5.30999729 1.55000012,9.9986206 C1.54919881,14.6872308 5.54995016,18.4989431 10.497987,18.4999999 Z" id="Path" stroke="#979797"></path>
                <path d="M6.3,12 C7.48650513,13.6191406 8.93933411,14.4287109 10.6584869,14.4287109 C12.3776398,14.4287109 13.8304687,13.6633708 15.0169739,12.1326904" id="Path" stroke="#979797" stroke-linecap="round"></path>
            </g>
        </g>
        <g id="图片" transform="translate(29.000000, 305.000000)">
            <g id="符号-图片" fill-rule="evenodd">
                <rect id="Rectangle-path" fill="#666666" fill-rule="nonzero" opacity="0" x="0" y="0" width="21" height="20"></rect>
                <path d="M18.6,2.5 L2.4,2.5 C1.93226156,2.5 1.55,2.87754229 1.55,3.33333333 L1.55,16.6666667 C1.55,17.1224577 1.93226156,17.5 2.4,17.5 L18.6,17.5 C19.0677384,17.5 19.45,17.1224577 19.45,16.6666667 L19.45,3.33333333 C19.45,2.87754229 19.0677384,2.5 18.6,2.5 Z" id="Shape" stroke="#999999" fill-rule="nonzero"></path>
                <ellipse id="Combined-Shape" stroke="#979797" cx="6.825" cy="7.5" rx="1.575" ry="1.5"></ellipse>
            </g>
            <path d="M4.37893066,14.2171631 L6.50627957,11.9271829 C6.88217139,11.522555 7.51490769,11.4992597 7.91953564,11.8751516 C7.94371797,11.8976165 7.96677322,11.9212649 7.98861673,11.94601 L9.25469342,13.3802659 C9.62018733,13.7943101 10.2521279,13.833668 10.6661721,13.4681741 C10.6936217,13.4439432 10.7197197,13.4182231 10.7443483,13.3911299 L13.5513169,10.3032672 C13.9228108,9.89459778 14.5552582,9.86446108 14.9639276,10.235955 C15.041011,10.3060264 15.1066722,10.3877119 15.1585355,10.4780559 L16.9681641,13.6303711" id="Path-26" stroke="#979797" stroke-linecap="round"></path>
        </g>
        <g id="文件夹" transform="translate(58.000000, 305.000000)">
            <g stroke-width="1">
                <rect id="Rectangle-path" fill="#666666" fill-rule="nonzero" opacity="0" x="0" y="0" width="21" height="20"></rect>
                <path d="M18.8087486,4.78571429 L10.3023385,4.78571429 L8.00742109,2.63515775 C7.91475646,2.54832215 7.79252184,2.5 7.6655291,2.5 C7.22769602,2.5 7.22769602,2.5 6.78986294,2.5 C6.35202986,2.5 6.35202986,2.5 5.91419678,2.5 L2.1,2.5 C1.85618566,2.5 1.55,2.82851858 1.55,3.14285714 L1.55,16.8571429 C1.55,17.1714814 1.85618566,17.5 2.1,17.5 L18.9,17.5 C19.1438143,17.5 19.45,17.1714814 19.45,16.8571429 L19.45,5.42857143 C19.45,5.27509721 19.1332937,4.92534085 18.8087486,4.78571429 Z" id="Shape" stroke="#999999" fill-rule="nonzero"></path>
            </g>
            <rect id="Rectangle" fill="#999999" x="3.15" y="7" width="16.8" height="1" rx="0.5"></rect>
        </g>
    </g>
</svg>